<svg width="259" height="115" viewBox="0 0 259 115" fill="none" xmlns="http://www.w3.org/2000/svg">
<mask id="path-1-outside-1_411_898" maskUnits="userSpaceOnUse" x="1" y="2" width="258" height="66" fill="black">
<rect fill="white" x="1" y="2" width="258" height="66"/>
<path d="M28.133 4.20961C36.1204 4.20961 42.1244 5.52298 46.1449 8.14973C50.1655 10.7765 52.1757 14.663 52.1757 19.8093C52.1757 21.6855 51.8541 23.4545 51.2108 25.1164C50.5675 26.7246 49.6562 28.0379 48.4769 29.0565C47.8872 29.5389 47.3243 29.9678 46.7882 30.343C46.2522 30.7183 45.6357 31.0667 44.9388 31.3884C44.2955 31.6564 43.5182 31.9245 42.6069 32.1925C41.7492 32.4605 40.7306 32.7554 39.5513 33.077C41.0523 33.3986 42.3388 33.7203 43.411 34.0419C44.5367 34.3636 45.5285 34.7388 46.3862 35.1677C47.2439 35.5429 48.0212 35.9718 48.7181 36.4542C49.415 36.9367 50.1119 37.4996 50.8088 38.1429C53.8108 40.8232 55.3118 44.2809 55.3118 48.5158C55.3118 51.089 54.8025 53.3941 53.7839 55.4311C52.7654 57.4682 51.2912 59.2104 49.3614 60.6578C47.4315 62.0516 45.0996 63.1238 42.3656 63.8743C39.6317 64.6248 36.5493 65 33.1184 65H2.4016V63.3114C4.27784 63.2578 5.77884 63.1238 6.90459 62.9093C8.08394 62.6413 8.99526 62.2124 9.63855 61.6228C10.2818 61.0331 10.7107 60.229 10.9251 59.2104C11.1395 58.1383 11.2468 56.7713 11.2468 55.1095V14.2609C11.2468 12.5455 11.1395 11.1785 10.9251 10.16C10.7643 9.14146 10.3622 8.33735 9.71896 7.74767C9.07567 7.158 8.16435 6.75594 6.985 6.54152C5.85925 6.32709 4.33145 6.16627 2.4016 6.05905V4.20961H28.133ZM20.494 57.8435C20.494 59.3445 20.896 60.363 21.7001 60.8991C22.5042 61.3815 23.9784 61.6228 26.1227 61.6228C27.7309 61.6228 29.1515 61.596 30.3845 61.5423C31.671 61.4351 32.8236 61.3011 33.8421 61.1403C34.9143 60.9259 35.8792 60.6578 36.7369 60.3362C37.5946 60.0145 38.3987 59.6393 39.1492 59.2104C42.9017 57.0662 44.778 53.5281 44.778 48.5962C44.778 42.8067 42.1244 38.8934 36.8173 36.8563C35.9596 36.5347 35.0215 36.2666 34.0029 36.0522C33.038 35.8378 31.9123 35.6769 30.6257 35.5697C29.3927 35.4089 27.9454 35.3017 26.2835 35.2481C24.6217 35.1409 22.6919 35.0873 20.494 35.0873V57.8435ZM29.3391 31.3884C33.6813 31.3884 37.0049 30.4503 39.31 28.574C41.6688 26.6442 42.8481 23.8566 42.8481 20.2113C42.8481 16.03 41.4811 12.894 38.7472 10.8033C36.0132 8.7126 31.9659 7.66726 26.6052 7.66726H22.5846C21.1909 7.66726 20.494 8.57858 20.494 10.4012V31.3884H29.3391ZM88.2769 22.7845C91.2253 22.7845 93.9324 23.2937 96.3983 24.3123C98.8643 25.3308 100.982 26.7782 102.751 28.6544C104.573 30.4771 105.994 32.6481 107.013 35.1677C108.031 37.6872 108.54 40.4748 108.54 43.5304C108.54 46.7468 108.004 49.722 106.932 52.456C105.914 55.1363 104.493 57.495 102.67 59.5321C100.848 61.5155 98.6766 63.0701 96.1571 64.1959C93.6912 65.3216 91.0108 65.8845 88.116 65.8845C85.2213 65.8845 82.5409 65.3484 80.075 64.2763C77.6091 63.2042 75.4916 61.7032 73.7226 59.7733C71.9535 57.8435 70.5597 55.5652 69.5412 52.9384C68.5227 50.3117 68.0134 47.4437 68.0134 44.3345C68.0134 41.1717 68.4959 38.2769 69.4608 35.6501C70.4793 32.9698 71.8731 30.6915 73.6421 28.8152C75.4112 26.8854 77.5287 25.4112 79.9946 24.3927C82.5141 23.3205 85.2749 22.7845 88.2769 22.7845ZM86.9099 25.3576C83.6935 25.3576 81.1203 26.671 79.1905 29.2977C77.2606 31.9245 76.2957 35.4089 76.2957 39.7511C76.2957 43.0211 76.6441 46.2107 77.341 49.3199C78.0379 52.3755 79.0297 55.1095 80.3162 57.5218C81.2811 59.3981 82.5677 60.8455 84.1759 61.864C85.7841 62.8825 87.5264 63.3918 89.4026 63.3918C92.7799 63.3918 95.4066 61.9176 97.2829 58.9692C99.2127 55.9672 100.178 51.8663 100.178 46.6664C100.178 42.7531 99.6148 39.1078 98.489 35.7306C97.3633 32.3533 95.8355 29.807 93.9056 28.0915C92.8871 27.1266 91.8149 26.4297 90.6892 26.0009C89.5634 25.572 88.3037 25.3576 86.9099 25.3576ZM141.988 36.213C140.969 32.0853 139.71 29.1637 138.209 27.4483C136.708 25.7328 134.644 24.8751 132.017 24.8751C129.873 24.8751 128.157 25.4648 126.871 26.6442C125.584 27.7699 124.941 29.2709 124.941 31.1472C124.941 33.7739 126.254 35.8646 128.881 37.4192L138.771 43.2891C141.559 44.951 143.543 46.6128 144.722 48.2746C145.901 49.8828 146.491 51.8395 146.491 54.1446C146.491 55.7528 146.142 57.2806 145.446 58.728C144.749 60.1754 143.811 61.4351 142.631 62.5073C141.505 63.5258 140.165 64.3567 138.611 65C137.056 65.5897 135.394 65.8845 133.625 65.8845C132.66 65.8845 131.615 65.8041 130.489 65.6433C129.363 65.5361 128.13 65.3216 126.79 65C125.718 64.732 124.887 64.5443 124.298 64.4371C123.708 64.3299 123.145 64.2763 122.609 64.2763C122.073 64.2763 121.671 64.3567 121.403 64.5175C121.135 64.6784 120.84 64.9732 120.518 65.4021H119.312V51.089H120.76C121.296 53.4477 121.912 55.4311 122.609 57.0394C123.306 58.6476 124.11 59.9609 125.021 60.9795C125.933 61.998 127.005 62.7485 128.238 63.231C129.471 63.6598 130.864 63.8743 132.419 63.8743C134.831 63.8743 136.708 63.2846 138.048 62.1052C139.442 60.9259 140.138 59.3177 140.138 57.2806C140.138 54.5466 138.53 52.2683 135.314 50.4457L130.007 47.3901C128.023 46.2643 126.335 45.1922 124.941 44.1737C123.601 43.1551 122.502 42.1366 121.644 41.1181C120.786 40.0459 120.17 38.947 119.795 37.8212C119.419 36.6955 119.232 35.4893 119.232 34.2028C119.232 32.5409 119.527 31.0131 120.116 29.6193C120.76 28.2256 121.617 27.0194 122.689 26.0009C123.815 24.9823 125.155 24.205 126.71 23.669C128.265 23.1329 129.98 22.8649 131.856 22.8649C134 22.8649 136.064 23.2401 138.048 23.9906C139.174 24.4731 140.031 24.7143 140.621 24.7143C140.835 24.7143 140.996 24.6607 141.103 24.5535C141.211 24.4463 141.479 24.205 141.908 23.8298L141.988 23.669H143.114L143.435 36.213H141.988ZM176.963 26.5637H167.636V52.9384C167.636 55.8868 168.011 58.0043 168.761 59.2908C169.512 60.5238 170.718 61.1403 172.38 61.1403C173.452 61.1403 174.39 60.9259 175.194 60.497C175.998 60.0145 176.936 59.1568 178.009 57.9239L179.134 59.0496C176.24 63.6062 172.541 65.8845 168.038 65.8845C162.623 65.8845 159.916 61.998 159.916 54.225V26.5637H155.092C154.877 26.5101 154.77 26.3225 154.77 26.0009C154.77 25.4648 155.279 24.8751 156.298 24.2318C158.71 22.8381 161.685 19.568 165.223 14.4218C165.491 13.9929 165.786 13.5908 166.108 13.2156C166.483 12.7867 166.805 12.3311 167.073 11.8486C167.287 11.8486 167.421 11.929 167.475 12.0898C167.582 12.2507 167.636 12.5723 167.636 13.0548V23.669H176.963V26.5637ZM183.071 27.8503C184.411 27.3679 185.644 26.939 186.77 26.5637C187.896 26.1349 188.968 25.7328 189.987 25.3576C191.059 24.9287 192.104 24.5267 193.123 24.1514C194.195 23.7226 195.347 23.2669 196.58 22.7845L197.143 22.9453V31.3884C198.269 29.7266 199.287 28.3596 200.199 27.2874C201.11 26.1617 201.995 25.2772 202.852 24.6339C203.71 23.937 204.541 23.4545 205.345 23.1865C206.203 22.9185 207.114 22.7845 208.079 22.7845C209.634 22.7845 210.867 23.2401 211.778 24.1514C212.689 25.0091 213.145 26.1617 213.145 27.6091C213.145 28.9493 212.823 29.9946 212.18 30.7451C211.537 31.442 210.679 31.7904 209.607 31.7904C209.017 31.7904 208.427 31.6832 207.838 31.4688C207.302 31.2008 206.658 30.6915 205.908 29.941C205.425 29.5121 204.97 29.1905 204.541 28.9761C204.112 28.7616 203.764 28.6544 203.496 28.6544C202.852 28.6544 202.155 28.9225 201.405 29.4585C200.708 29.941 200.038 30.5575 199.395 31.308C198.751 32.0585 198.215 32.8626 197.786 33.7203C197.358 34.578 197.143 35.3821 197.143 36.1326V56.7981C197.143 58.0847 197.25 59.1568 197.465 60.0145C197.679 60.8723 198.081 61.5691 198.671 62.1052C199.261 62.5877 200.065 62.9629 201.083 63.231C202.102 63.499 203.388 63.6598 204.943 63.7134V65H182.83V63.7134C184.277 63.4454 185.43 63.1774 186.288 62.9093C187.199 62.5877 187.869 62.2124 188.298 61.7836C188.78 61.3547 189.075 60.7918 189.182 60.095C189.343 59.3445 189.424 58.4063 189.424 57.2806V34.3636C189.424 32.3265 189.182 30.9059 188.7 30.1018C188.218 29.2441 187.413 28.8152 186.288 28.8152C185.698 28.8152 185.162 28.842 184.679 28.8957C184.251 28.9493 183.715 29.0565 183.071 29.2173V27.8503ZM250.13 55.3507C250.13 57.3878 250.318 58.8084 250.693 59.6125C251.069 60.363 251.792 60.7382 252.864 60.7382C254.097 60.7382 255.438 60.1754 256.885 59.0496V61.3815C255.33 63.0969 253.963 64.2763 252.784 64.9196C251.605 65.5629 250.238 65.8845 248.683 65.8845C246.807 65.8845 245.413 65.3752 244.502 64.3567C243.644 63.2846 243.108 61.5155 242.894 59.0496C240.106 61.4619 237.667 63.2042 235.576 64.2763C233.485 65.3484 231.448 65.8845 229.465 65.8845C226.57 65.8845 224.211 64.9732 222.389 63.1506C220.62 61.3279 219.735 58.9692 219.735 56.0744C219.735 54.627 220.003 53.1796 220.539 51.7323C221.129 50.2313 221.96 49.0251 223.032 48.1138C223.997 47.2561 224.882 46.5324 225.686 45.9427C226.543 45.2994 227.642 44.6561 228.983 44.0128C230.323 43.3159 232.065 42.5386 234.209 41.6809C236.353 40.8232 239.195 39.6707 242.733 38.2233V32.3533C242.733 29.8338 242.116 27.9307 240.883 26.6442C239.704 25.3576 237.988 24.7143 235.737 24.7143C233.861 24.7143 232.279 25.17 230.993 26.0813C229.76 26.939 229.143 27.9843 229.143 29.2173C229.143 29.6998 229.197 30.3162 229.304 31.0667C229.465 31.8172 229.545 32.4337 229.545 32.9162C229.545 33.9883 229.117 34.8996 228.259 35.6501C227.455 36.4006 226.517 36.7759 225.444 36.7759C224.372 36.7759 223.434 36.4006 222.63 35.6501C221.88 34.846 221.504 33.9079 221.504 32.8358C221.504 31.6564 221.826 30.4503 222.469 29.2173C223.166 27.9843 224.104 26.8854 225.284 25.9205C226.517 24.8483 228.152 24.0174 230.189 23.4277C232.279 22.8381 234.531 22.5432 236.943 22.5432C239.731 22.5432 242.063 23.0257 243.939 23.9906C245.869 24.9019 247.343 26.1885 248.361 27.8503C249.005 28.9225 249.46 30.1822 249.728 31.6296C249.996 33.0234 250.13 34.9264 250.13 37.3388V55.3507ZM242.733 40.4748C239.945 41.4933 237.56 42.485 235.576 43.45C233.646 44.3613 232.065 45.3262 230.832 46.3447C229.653 47.3097 228.795 48.355 228.259 49.4808C227.723 50.6065 227.455 51.8395 227.455 53.1796V53.5817C227.455 54.5466 227.616 55.4847 227.937 56.3961C228.259 57.2538 228.688 58.0043 229.224 58.6476C229.813 59.2908 230.484 59.8001 231.234 60.1754C231.985 60.5506 232.762 60.7382 233.566 60.7382C234.531 60.7382 235.603 60.5506 236.782 60.1754C238.015 59.7465 239.168 59.2372 240.24 58.6476C241.312 58.0579 241.982 57.4414 242.25 56.7981C242.572 56.1548 242.733 55.1363 242.733 53.7425V40.4748Z"/>
</mask>
<path d="M28.133 4.20961C36.1204 4.20961 42.1244 5.52298 46.1449 8.14973C50.1655 10.7765 52.1757 14.663 52.1757 19.8093C52.1757 21.6855 51.8541 23.4545 51.2108 25.1164C50.5675 26.7246 49.6562 28.0379 48.4769 29.0565C47.8872 29.5389 47.3243 29.9678 46.7882 30.343C46.2522 30.7183 45.6357 31.0667 44.9388 31.3884C44.2955 31.6564 43.5182 31.9245 42.6069 32.1925C41.7492 32.4605 40.7306 32.7554 39.5513 33.077C41.0523 33.3986 42.3388 33.7203 43.411 34.0419C44.5367 34.3636 45.5285 34.7388 46.3862 35.1677C47.2439 35.5429 48.0212 35.9718 48.7181 36.4542C49.415 36.9367 50.1119 37.4996 50.8088 38.1429C53.8108 40.8232 55.3118 44.2809 55.3118 48.5158C55.3118 51.089 54.8025 53.3941 53.7839 55.4311C52.7654 57.4682 51.2912 59.2104 49.3614 60.6578C47.4315 62.0516 45.0996 63.1238 42.3656 63.8743C39.6317 64.6248 36.5493 65 33.1184 65H2.4016V63.3114C4.27784 63.2578 5.77884 63.1238 6.90459 62.9093C8.08394 62.6413 8.99526 62.2124 9.63855 61.6228C10.2818 61.0331 10.7107 60.229 10.9251 59.2104C11.1395 58.1383 11.2468 56.7713 11.2468 55.1095V14.2609C11.2468 12.5455 11.1395 11.1785 10.9251 10.16C10.7643 9.14146 10.3622 8.33735 9.71896 7.74767C9.07567 7.158 8.16435 6.75594 6.985 6.54152C5.85925 6.32709 4.33145 6.16627 2.4016 6.05905V4.20961H28.133ZM20.494 57.8435C20.494 59.3445 20.896 60.363 21.7001 60.8991C22.5042 61.3815 23.9784 61.6228 26.1227 61.6228C27.7309 61.6228 29.1515 61.596 30.3845 61.5423C31.671 61.4351 32.8236 61.3011 33.8421 61.1403C34.9143 60.9259 35.8792 60.6578 36.7369 60.3362C37.5946 60.0145 38.3987 59.6393 39.1492 59.2104C42.9017 57.0662 44.778 53.5281 44.778 48.5962C44.778 42.8067 42.1244 38.8934 36.8173 36.8563C35.9596 36.5347 35.0215 36.2666 34.0029 36.0522C33.038 35.8378 31.9123 35.6769 30.6257 35.5697C29.3927 35.4089 27.9454 35.3017 26.2835 35.2481C24.6217 35.1409 22.6919 35.0873 20.494 35.0873V57.8435ZM29.3391 31.3884C33.6813 31.3884 37.0049 30.4503 39.31 28.574C41.6688 26.6442 42.8481 23.8566 42.8481 20.2113C42.8481 16.03 41.4811 12.894 38.7472 10.8033C36.0132 8.7126 31.9659 7.66726 26.6052 7.66726H22.5846C21.1909 7.66726 20.494 8.57858 20.494 10.4012V31.3884H29.3391ZM88.2769 22.7845C91.2253 22.7845 93.9324 23.2937 96.3983 24.3123C98.8643 25.3308 100.982 26.7782 102.751 28.6544C104.573 30.4771 105.994 32.6481 107.013 35.1677C108.031 37.6872 108.54 40.4748 108.54 43.5304C108.54 46.7468 108.004 49.722 106.932 52.456C105.914 55.1363 104.493 57.495 102.67 59.5321C100.848 61.5155 98.6766 63.0701 96.1571 64.1959C93.6912 65.3216 91.0108 65.8845 88.116 65.8845C85.2213 65.8845 82.5409 65.3484 80.075 64.2763C77.6091 63.2042 75.4916 61.7032 73.7226 59.7733C71.9535 57.8435 70.5597 55.5652 69.5412 52.9384C68.5227 50.3117 68.0134 47.4437 68.0134 44.3345C68.0134 41.1717 68.4959 38.2769 69.4608 35.6501C70.4793 32.9698 71.8731 30.6915 73.6421 28.8152C75.4112 26.8854 77.5287 25.4112 79.9946 24.3927C82.5141 23.3205 85.2749 22.7845 88.2769 22.7845ZM86.9099 25.3576C83.6935 25.3576 81.1203 26.671 79.1905 29.2977C77.2606 31.9245 76.2957 35.4089 76.2957 39.7511C76.2957 43.0211 76.6441 46.2107 77.341 49.3199C78.0379 52.3755 79.0297 55.1095 80.3162 57.5218C81.2811 59.3981 82.5677 60.8455 84.1759 61.864C85.7841 62.8825 87.5264 63.3918 89.4026 63.3918C92.7799 63.3918 95.4066 61.9176 97.2829 58.9692C99.2127 55.9672 100.178 51.8663 100.178 46.6664C100.178 42.7531 99.6148 39.1078 98.489 35.7306C97.3633 32.3533 95.8355 29.807 93.9056 28.0915C92.8871 27.1266 91.8149 26.4297 90.6892 26.0009C89.5634 25.572 88.3037 25.3576 86.9099 25.3576ZM141.988 36.213C140.969 32.0853 139.71 29.1637 138.209 27.4483C136.708 25.7328 134.644 24.8751 132.017 24.8751C129.873 24.8751 128.157 25.4648 126.871 26.6442C125.584 27.7699 124.941 29.2709 124.941 31.1472C124.941 33.7739 126.254 35.8646 128.881 37.4192L138.771 43.2891C141.559 44.951 143.543 46.6128 144.722 48.2746C145.901 49.8828 146.491 51.8395 146.491 54.1446C146.491 55.7528 146.142 57.2806 145.446 58.728C144.749 60.1754 143.811 61.4351 142.631 62.5073C141.505 63.5258 140.165 64.3567 138.611 65C137.056 65.5897 135.394 65.8845 133.625 65.8845C132.66 65.8845 131.615 65.8041 130.489 65.6433C129.363 65.5361 128.13 65.3216 126.79 65C125.718 64.732 124.887 64.5443 124.298 64.4371C123.708 64.3299 123.145 64.2763 122.609 64.2763C122.073 64.2763 121.671 64.3567 121.403 64.5175C121.135 64.6784 120.84 64.9732 120.518 65.4021H119.312V51.089H120.76C121.296 53.4477 121.912 55.4311 122.609 57.0394C123.306 58.6476 124.11 59.9609 125.021 60.9795C125.933 61.998 127.005 62.7485 128.238 63.231C129.471 63.6598 130.864 63.8743 132.419 63.8743C134.831 63.8743 136.708 63.2846 138.048 62.1052C139.442 60.9259 140.138 59.3177 140.138 57.2806C140.138 54.5466 138.53 52.2683 135.314 50.4457L130.007 47.3901C128.023 46.2643 126.335 45.1922 124.941 44.1737C123.601 43.1551 122.502 42.1366 121.644 41.1181C120.786 40.0459 120.17 38.947 119.795 37.8212C119.419 36.6955 119.232 35.4893 119.232 34.2028C119.232 32.5409 119.527 31.0131 120.116 29.6193C120.76 28.2256 121.617 27.0194 122.689 26.0009C123.815 24.9823 125.155 24.205 126.71 23.669C128.265 23.1329 129.98 22.8649 131.856 22.8649C134 22.8649 136.064 23.2401 138.048 23.9906C139.174 24.4731 140.031 24.7143 140.621 24.7143C140.835 24.7143 140.996 24.6607 141.103 24.5535C141.211 24.4463 141.479 24.205 141.908 23.8298L141.988 23.669H143.114L143.435 36.213H141.988ZM176.963 26.5637H167.636V52.9384C167.636 55.8868 168.011 58.0043 168.761 59.2908C169.512 60.5238 170.718 61.1403 172.38 61.1403C173.452 61.1403 174.39 60.9259 175.194 60.497C175.998 60.0145 176.936 59.1568 178.009 57.9239L179.134 59.0496C176.24 63.6062 172.541 65.8845 168.038 65.8845C162.623 65.8845 159.916 61.998 159.916 54.225V26.5637H155.092C154.877 26.5101 154.77 26.3225 154.77 26.0009C154.77 25.4648 155.279 24.8751 156.298 24.2318C158.71 22.8381 161.685 19.568 165.223 14.4218C165.491 13.9929 165.786 13.5908 166.108 13.2156C166.483 12.7867 166.805 12.3311 167.073 11.8486C167.287 11.8486 167.421 11.929 167.475 12.0898C167.582 12.2507 167.636 12.5723 167.636 13.0548V23.669H176.963V26.5637ZM183.071 27.8503C184.411 27.3679 185.644 26.939 186.77 26.5637C187.896 26.1349 188.968 25.7328 189.987 25.3576C191.059 24.9287 192.104 24.5267 193.123 24.1514C194.195 23.7226 195.347 23.2669 196.58 22.7845L197.143 22.9453V31.3884C198.269 29.7266 199.287 28.3596 200.199 27.2874C201.11 26.1617 201.995 25.2772 202.852 24.6339C203.71 23.937 204.541 23.4545 205.345 23.1865C206.203 22.9185 207.114 22.7845 208.079 22.7845C209.634 22.7845 210.867 23.2401 211.778 24.1514C212.689 25.0091 213.145 26.1617 213.145 27.6091C213.145 28.9493 212.823 29.9946 212.18 30.7451C211.537 31.442 210.679 31.7904 209.607 31.7904C209.017 31.7904 208.427 31.6832 207.838 31.4688C207.302 31.2008 206.658 30.6915 205.908 29.941C205.425 29.5121 204.97 29.1905 204.541 28.9761C204.112 28.7616 203.764 28.6544 203.496 28.6544C202.852 28.6544 202.155 28.9225 201.405 29.4585C200.708 29.941 200.038 30.5575 199.395 31.308C198.751 32.0585 198.215 32.8626 197.786 33.7203C197.358 34.578 197.143 35.3821 197.143 36.1326V56.7981C197.143 58.0847 197.25 59.1568 197.465 60.0145C197.679 60.8723 198.081 61.5691 198.671 62.1052C199.261 62.5877 200.065 62.9629 201.083 63.231C202.102 63.499 203.388 63.6598 204.943 63.7134V65H182.83V63.7134C184.277 63.4454 185.43 63.1774 186.288 62.9093C187.199 62.5877 187.869 62.2124 188.298 61.7836C188.78 61.3547 189.075 60.7918 189.182 60.095C189.343 59.3445 189.424 58.4063 189.424 57.2806V34.3636C189.424 32.3265 189.182 30.9059 188.7 30.1018C188.218 29.2441 187.413 28.8152 186.288 28.8152C185.698 28.8152 185.162 28.842 184.679 28.8957C184.251 28.9493 183.715 29.0565 183.071 29.2173V27.8503ZM250.13 55.3507C250.13 57.3878 250.318 58.8084 250.693 59.6125C251.069 60.363 251.792 60.7382 252.864 60.7382C254.097 60.7382 255.438 60.1754 256.885 59.0496V61.3815C255.33 63.0969 253.963 64.2763 252.784 64.9196C251.605 65.5629 250.238 65.8845 248.683 65.8845C246.807 65.8845 245.413 65.3752 244.502 64.3567C243.644 63.2846 243.108 61.5155 242.894 59.0496C240.106 61.4619 237.667 63.2042 235.576 64.2763C233.485 65.3484 231.448 65.8845 229.465 65.8845C226.57 65.8845 224.211 64.9732 222.389 63.1506C220.62 61.3279 219.735 58.9692 219.735 56.0744C219.735 54.627 220.003 53.1796 220.539 51.7323C221.129 50.2313 221.96 49.0251 223.032 48.1138C223.997 47.2561 224.882 46.5324 225.686 45.9427C226.543 45.2994 227.642 44.6561 228.983 44.0128C230.323 43.3159 232.065 42.5386 234.209 41.6809C236.353 40.8232 239.195 39.6707 242.733 38.2233V32.3533C242.733 29.8338 242.116 27.9307 240.883 26.6442C239.704 25.3576 237.988 24.7143 235.737 24.7143C233.861 24.7143 232.279 25.17 230.993 26.0813C229.76 26.939 229.143 27.9843 229.143 29.2173C229.143 29.6998 229.197 30.3162 229.304 31.0667C229.465 31.8172 229.545 32.4337 229.545 32.9162C229.545 33.9883 229.117 34.8996 228.259 35.6501C227.455 36.4006 226.517 36.7759 225.444 36.7759C224.372 36.7759 223.434 36.4006 222.63 35.6501C221.88 34.846 221.504 33.9079 221.504 32.8358C221.504 31.6564 221.826 30.4503 222.469 29.2173C223.166 27.9843 224.104 26.8854 225.284 25.9205C226.517 24.8483 228.152 24.0174 230.189 23.4277C232.279 22.8381 234.531 22.5432 236.943 22.5432C239.731 22.5432 242.063 23.0257 243.939 23.9906C245.869 24.9019 247.343 26.1885 248.361 27.8503C249.005 28.9225 249.46 30.1822 249.728 31.6296C249.996 33.0234 250.13 34.9264 250.13 37.3388V55.3507ZM242.733 40.4748C239.945 41.4933 237.56 42.485 235.576 43.45C233.646 44.3613 232.065 45.3262 230.832 46.3447C229.653 47.3097 228.795 48.355 228.259 49.4808C227.723 50.6065 227.455 51.8395 227.455 53.1796V53.5817C227.455 54.5466 227.616 55.4847 227.937 56.3961C228.259 57.2538 228.688 58.0043 229.224 58.6476C229.813 59.2908 230.484 59.8001 231.234 60.1754C231.985 60.5506 232.762 60.7382 233.566 60.7382C234.531 60.7382 235.603 60.5506 236.782 60.1754C238.015 59.7465 239.168 59.2372 240.24 58.6476C241.312 58.0579 241.982 57.4414 242.25 56.7981C242.572 56.1548 242.733 55.1363 242.733 53.7425V40.4748Z" fill="#1B7660"/>
<path d="M51.2108 25.1164L52.485 25.626L52.4878 25.6189L52.4906 25.6118L51.2108 25.1164ZM48.4769 29.0565L49.3459 30.1186L49.36 30.107L49.3738 30.0951L48.4769 29.0565ZM44.9388 31.3884L45.4666 32.6552L45.4904 32.6452L45.5139 32.6344L44.9388 31.3884ZM42.6069 32.1925L42.2197 30.8759L42.2086 30.8792L42.1975 30.8826L42.6069 32.1925ZM39.5513 33.077L39.1902 31.753L39.2637 34.4189L39.5513 33.077ZM43.411 34.0419L43.0166 35.3564L43.0253 35.359L43.034 35.3615L43.411 34.0419ZM46.3862 35.1677L45.7724 36.3951L45.8039 36.4109L45.8361 36.425L46.3862 35.1677ZM50.8088 38.1429L49.8779 39.1513L49.8863 39.159L49.8948 39.1665L50.8088 38.1429ZM49.3614 60.6578L50.1649 61.7704L50.1749 61.7631L50.1848 61.7557L49.3614 60.6578ZM2.4016 65H1.02926V66.3723H2.4016V65ZM2.4016 63.3114L2.3624 61.9396L1.02926 61.9777V63.3114H2.4016ZM6.90459 62.9093L7.16137 64.2574L7.18513 64.2529L7.20873 64.2475L6.90459 62.9093ZM10.9251 59.2104L12.2681 59.4932L12.2708 59.4796L10.9251 59.2104ZM10.9251 10.16L9.56957 10.374L9.57502 10.4085L9.58221 10.4427L10.9251 10.16ZM6.985 6.54152L6.72821 7.88967L6.73951 7.89172L6.985 6.54152ZM2.4016 6.05905H1.02926V7.35727L2.32547 7.42928L2.4016 6.05905ZM2.4016 4.20961V2.83727H1.02926V4.20961H2.4016ZM21.7001 60.8991L20.9389 62.0409L20.9661 62.059L20.9941 62.0758L21.7001 60.8991ZM30.3845 61.5423L30.4441 62.9134L30.4713 62.9122L30.4984 62.9099L30.3845 61.5423ZM33.8421 61.1403L34.0562 62.4958L34.0838 62.4915L34.1113 62.486L33.8421 61.1403ZM36.8173 36.8563L37.3091 35.5751L37.2992 35.5713L36.8173 36.8563ZM34.0029 36.0522L33.7052 37.3919L33.7127 37.3935L33.7202 37.3951L34.0029 36.0522ZM30.6257 35.5697L30.4482 36.9305L30.4799 36.9347L30.5117 36.9373L30.6257 35.5697ZM26.2835 35.2481L26.1952 36.6176L26.2172 36.619L26.2393 36.6197L26.2835 35.2481ZM20.494 35.0873V33.7149H19.1216V35.0873H20.494ZM39.31 28.574L40.1764 29.6384L40.1791 29.6361L39.31 28.574ZM20.494 31.3884H19.1216V32.7607H20.494V31.3884ZM28.133 4.20961V5.58195C36.0125 5.58195 41.7005 6.88527 45.3943 9.2986L46.1449 8.14973L46.8955 7.00085C42.5484 4.16069 36.2283 2.83727 28.133 2.83727V4.20961ZM46.1449 8.14973L45.3943 9.2986C48.995 11.651 50.8034 15.0868 50.8034 19.8093H52.1757H53.5481C53.5481 14.2392 51.336 9.90194 46.8955 7.00085L46.1449 8.14973ZM52.1757 19.8093H50.8034C50.8034 21.5252 50.5099 23.1254 49.931 24.6209L51.2108 25.1164L52.4906 25.6118C53.1983 23.7837 53.5481 21.8459 53.5481 19.8093H52.1757ZM51.2108 25.1164L49.9366 24.6067C49.3657 26.034 48.5751 27.1583 47.5799 28.0179L48.4769 29.0565L49.3738 30.0951C50.7373 28.9176 51.7694 27.4151 52.485 25.626L51.2108 25.1164ZM48.4769 29.0565L47.6078 27.9943C47.0405 28.4585 46.5051 28.8661 46.0012 29.2188L46.7882 30.343L47.5752 31.4673C48.1435 31.0695 48.7338 30.6194 49.3459 30.1186L48.4769 29.0565ZM46.7882 30.343L46.0012 29.2188C45.5423 29.54 44.9988 29.8492 44.3637 30.1424L44.9388 31.3884L45.5139 32.6344C46.2725 32.2843 46.962 31.8966 47.5752 31.4673L46.7882 30.343ZM44.9388 31.3884L44.411 30.1216C43.8267 30.3651 43.0991 30.6173 42.2197 30.8759L42.6069 32.1925L42.9941 33.5091C43.9373 33.2316 44.7643 32.9478 45.4666 32.6552L44.9388 31.3884ZM42.6069 32.1925L42.1975 30.8826C41.3603 31.1442 40.3587 31.4343 39.1902 31.753L39.5513 33.077L39.9124 34.401C41.1026 34.0764 42.138 33.7768 43.0162 33.5024L42.6069 32.1925ZM39.5513 33.077L39.2637 34.4189C40.7409 34.7354 41.9899 35.0484 43.0166 35.3564L43.411 34.0419L43.8053 32.7275C42.6878 32.3922 41.3636 32.0619 39.8388 31.7351L39.5513 33.077ZM43.411 34.0419L43.034 35.3615C44.0953 35.6647 45.0051 36.0114 45.7724 36.3951L46.3862 35.1677L46.9999 33.9402C46.0519 33.4662 44.9782 33.0624 43.788 32.7224L43.411 34.0419ZM46.3862 35.1677L45.8361 36.425C46.6211 36.7684 47.3198 37.1553 47.9369 37.5826L48.7181 36.4542L49.4992 35.3259C48.7226 34.7882 47.8666 34.3175 46.9362 33.9104L46.3862 35.1677ZM48.7181 36.4542L47.9369 37.5826C48.5754 38.0246 49.2226 38.5464 49.8779 39.1513L50.8088 38.1429L51.7396 37.1345C51.0011 36.4528 50.2545 35.8488 49.4992 35.3259L48.7181 36.4542ZM50.8088 38.1429L49.8948 39.1665C52.5883 41.5715 53.9394 44.6486 53.9394 48.5158H55.3117H56.6841C56.6841 43.9131 55.0332 40.075 51.7228 37.1192L50.8088 38.1429ZM55.3117 48.5158H53.9394C53.9394 50.9038 53.468 52.9944 52.5565 54.8174L53.784 55.4311L55.0114 56.0449C56.1369 53.7938 56.6841 51.2742 56.6841 48.5158H55.3117ZM53.784 55.4311L52.5565 54.8174C51.6389 56.6527 50.3077 58.2326 48.538 59.56L49.3614 60.6578L50.1848 61.7557C52.2747 60.1882 53.892 58.2837 55.0114 56.0449L53.784 55.4311ZM49.3614 60.6578L48.5579 59.5453C46.7837 60.8267 44.6076 61.8357 42.0024 62.5509L42.3657 63.8743L42.7289 65.1976C45.5916 64.4118 48.0793 63.2766 50.1649 61.7704L49.3614 60.6578ZM42.3657 63.8743L42.0024 62.5509C39.4085 63.2629 36.4513 63.6277 33.1184 63.6277V65V66.3723C36.6472 66.3723 39.8549 65.9866 42.7289 65.1976L42.3657 63.8743ZM33.1184 65V63.6277H2.4016V65V66.3723H33.1184V65ZM2.4016 65H3.77394V63.3114H2.4016H1.02926V65H2.4016ZM2.4016 63.3114L2.44079 64.6832C4.3503 64.6286 5.93318 64.4914 7.16137 64.2574L6.90459 62.9093L6.64781 61.5612C5.6245 61.7561 4.20539 61.8869 2.3624 61.9396L2.4016 63.3114ZM6.90459 62.9093L7.20873 64.2475C8.53515 63.9461 9.6918 63.4356 10.5659 62.6344L9.63855 61.6228L8.71122 60.6111C8.29873 60.9893 7.63273 61.3365 6.60045 61.5711L6.90459 62.9093ZM9.63855 61.6228L10.5659 62.6344C11.4586 61.8161 12.0062 60.7367 12.268 59.4932L10.9251 59.2104L9.58221 58.9277C9.41516 59.7212 9.10507 60.2501 8.71122 60.6111L9.63855 61.6228ZM10.9251 59.2104L12.2708 59.4796C12.5096 58.2858 12.6191 56.8203 12.6191 55.1095H11.2468H9.87442C9.87442 56.7224 9.76952 57.9908 9.57943 58.9413L10.9251 59.2104ZM11.2468 55.1095H12.6191V14.2609H11.2468H9.87442V55.1095H11.2468ZM11.2468 14.2609H12.6191C12.6191 12.5031 12.5105 11.029 12.268 9.87727L10.9251 10.16L9.58221 10.4427C9.7686 11.328 9.87442 12.5879 9.87442 14.2609H11.2468ZM10.9251 10.16L12.2807 9.94596C12.0806 8.67876 11.5582 7.57199 10.6463 6.73605L9.71896 7.74767L8.79163 8.7593C9.16626 9.10271 9.44801 9.60416 9.56957 10.374L10.9251 10.16ZM9.71896 7.74767L10.6463 6.73605C9.75348 5.91765 8.57276 5.43536 7.23049 5.19131L6.985 6.54152L6.73951 7.89172C7.75595 8.07653 8.39786 8.39835 8.79163 8.7593L9.71896 7.74767ZM6.985 6.54152L7.24178 5.19341C6.02968 4.96254 4.43315 4.79746 2.47772 4.68882L2.4016 6.05905L2.32547 7.42928C4.22975 7.53507 5.68882 7.69164 6.72822 7.88962L6.985 6.54152ZM2.4016 6.05905H3.77394V4.20961H2.4016H1.02926V6.05905H2.4016ZM2.4016 4.20961V5.58195H28.133V4.20961V2.83727H2.4016V4.20961ZM20.494 57.8435H19.1216C19.1216 59.5385 19.5756 61.132 20.9389 62.0409L21.7001 60.8991L22.4614 59.7572C22.2165 59.5939 21.8663 59.1505 21.8663 57.8435H20.494ZM21.7001 60.8991L20.9941 62.0758C21.6068 62.4435 22.3685 62.6622 23.1872 62.7962C24.0216 62.9327 25.0054 62.9951 26.1227 62.9951V61.6228V60.2504C25.0958 60.2504 24.2703 60.1922 23.6305 60.0875C22.975 59.9803 22.5976 59.8371 22.4062 59.7223L21.7001 60.8991ZM26.1227 61.6228V62.9951C27.7452 62.9951 29.1864 62.9681 30.4441 62.9134L30.3845 61.5423L30.3249 60.1713C29.1166 60.2238 27.7166 60.2504 26.1227 60.2504V61.6228ZM30.3845 61.5423L30.4984 62.9099C31.8106 62.8006 32.9974 62.663 34.0562 62.4958L33.8421 61.1403L33.6281 59.7847C32.6498 59.9392 31.5315 60.0697 30.2705 60.1747L30.3845 61.5423ZM33.8421 61.1403L34.1113 62.486C35.2424 62.2598 36.2802 61.9731 37.2188 61.6212L36.7369 60.3362L36.255 59.0512C35.4782 59.3425 34.5861 59.592 33.573 59.7946L33.8421 61.1403ZM36.7369 60.3362L37.2188 61.6212C38.1411 61.2753 39.0122 60.8693 39.8301 60.402L39.1492 59.2104L38.4684 58.0189C37.7852 58.4093 37.0481 58.7538 36.255 59.0512L36.7369 60.3362ZM39.1492 59.2104L39.8301 60.402C44.0781 57.9746 46.1503 53.937 46.1503 48.5962H44.778H43.4056C43.4056 53.1191 41.7254 56.1578 38.4684 58.0189L39.1492 59.2104ZM44.778 48.5962H46.1503C46.1503 45.4891 45.4361 42.7794 43.9236 40.5489C42.4098 38.3164 40.1705 36.6734 37.3091 35.5751L36.8173 36.8563L36.3255 38.1375C38.7712 39.0762 40.5122 40.4084 41.652 42.0893C42.793 43.7721 43.4056 45.9138 43.4056 48.5962H44.778ZM36.8173 36.8563L37.2992 35.5713C36.3686 35.2224 35.363 34.9361 34.2857 34.7093L34.0029 36.0522L33.7202 37.3951C34.68 37.5971 35.5506 37.8469 36.3355 38.1413L36.8173 36.8563ZM34.0029 36.0522L34.3007 34.7125C33.2601 34.4813 32.0705 34.313 30.7397 34.2021L30.6257 35.5697L30.5117 36.9373C31.7541 37.0409 32.8159 37.1942 33.7052 37.3919L34.0029 36.0522ZM30.6257 35.5697L30.8032 34.2089C29.5142 34.0408 28.0204 33.9311 26.3278 33.8765L26.2835 35.2481L26.2393 36.6197C27.8704 36.6723 29.2713 36.777 30.4482 36.9305L30.6257 35.5697ZM26.2835 35.2481L26.3719 33.8786C24.6731 33.769 22.7126 33.7149 20.494 33.7149V35.0873V36.4596C22.6711 36.4596 24.5703 36.5128 26.1952 36.6176L26.2835 35.2481ZM20.494 35.0873H19.1216V57.8435H20.494H21.8663V35.0873H20.494ZM29.3391 31.3884V32.7607C33.8558 32.7607 37.5358 31.7877 40.1764 29.6383L39.31 28.574L38.4437 27.5097C36.4741 29.1129 33.5068 30.016 29.3391 30.016V31.3884ZM39.31 28.574L40.1791 29.6361C42.9196 27.3939 44.2205 24.1788 44.2205 20.2113H42.8481H41.4758C41.4758 23.5344 40.4179 25.8945 38.441 27.5119L39.31 28.574ZM42.8481 20.2113H44.2205C44.2205 15.705 42.7282 12.12 39.5808 9.71315L38.7472 10.8033L37.9135 11.8934C40.2341 13.6679 41.4758 16.3549 41.4758 20.2113H42.8481ZM38.7472 10.8033L39.5808 9.71315C36.5068 7.36246 32.1095 6.29492 26.6052 6.29492V7.66726V9.0396C31.8222 9.0396 35.5196 10.0627 37.9135 11.8934L38.7472 10.8033ZM26.6052 7.66726V6.29492H22.5846V7.66726V9.0396H26.6052V7.66726ZM22.5846 7.66726V6.29492C21.5628 6.29492 20.5911 6.64804 19.9265 7.51712C19.3152 8.31656 19.1216 9.3537 19.1216 10.4012H20.494H21.8663C21.8663 9.6261 22.0212 9.29626 22.1068 9.18438C22.1391 9.14215 22.2127 9.0396 22.5846 9.0396V7.66726ZM20.494 10.4012H19.1216V31.3884H20.494H21.8663V10.4012H20.494ZM20.494 31.3884V32.7607H29.3391V31.3884V30.016H20.494V31.3884ZM102.751 28.6544L101.752 29.5959L101.766 29.6105L101.78 29.6248L102.751 28.6544ZM106.932 52.456L105.655 51.9549L105.652 51.9617L105.649 51.9685L106.932 52.456ZM102.67 59.5321L103.681 60.4606L103.687 60.4539L103.693 60.4472L102.67 59.5321ZM96.1571 64.1959L95.5973 62.9429L95.5872 62.9475L96.1571 64.1959ZM69.4608 35.6501L68.178 35.1627L68.1752 35.1698L68.1726 35.1769L69.4608 35.6501ZM73.6421 28.8152L74.6406 29.7567L74.6473 29.7497L74.6538 29.7426L73.6421 28.8152ZM79.9946 24.3927L80.5185 25.6611L80.5252 25.6583L80.5319 25.6554L79.9946 24.3927ZM77.341 49.3199L76.0019 49.6201L76.003 49.6251L77.341 49.3199ZM80.3162 57.5218L81.5366 56.8942L81.5319 56.8851L81.5271 56.876L80.3162 57.5218ZM97.2829 58.9692L96.1285 58.2271L96.1251 58.2324L97.2829 58.9692ZM93.9056 28.0915L92.9618 29.0878L92.9776 29.1028L92.9939 29.1172L93.9056 28.0915ZM88.2769 22.7845V24.1568C91.0644 24.1568 93.5913 24.6376 95.8744 25.5807L96.3983 24.3123L96.9222 23.0438C94.2735 21.9498 91.3861 21.4121 88.2769 21.4121V22.7845ZM96.3983 24.3123L95.8744 25.5807C98.1672 26.5277 100.121 27.8659 101.752 29.5959L102.751 28.6544L103.749 27.713C101.842 25.6904 99.5613 24.1339 96.9222 23.0438L96.3983 24.3123ZM102.751 28.6544L101.78 29.6248C103.466 31.3102 104.787 33.3238 105.74 35.682L107.013 35.1677L108.285 34.6533C107.201 31.9725 105.681 29.6439 103.721 27.684L102.751 28.6544ZM107.013 35.1677L105.74 35.682C106.685 38.019 107.168 40.6292 107.168 43.5304H108.54H109.913C109.913 40.3203 109.377 37.3554 108.285 34.6533L107.013 35.1677ZM108.54 43.5304H107.168C107.168 46.5917 106.658 49.3952 105.655 51.9549L106.932 52.456L108.21 52.957C109.35 50.0488 109.913 46.9019 109.913 43.5304H108.54ZM106.932 52.456L105.649 51.9685C104.688 54.4994 103.353 56.7114 101.648 58.617L102.67 59.5321L103.693 60.4472C105.633 58.2786 107.14 55.7732 108.215 52.9434L106.932 52.456ZM102.67 59.5321L101.66 58.6035C99.9669 60.4459 97.9503 61.8916 95.5973 62.9429L96.1571 64.1959L96.7169 65.4489C99.4029 64.2487 101.729 62.5852 103.681 60.4606L102.67 59.5321ZM96.1571 64.1959L95.5872 62.9475C93.3121 63.9861 90.8278 64.5122 88.116 64.5122V65.8845V67.2569C91.1939 67.2569 94.0702 66.6572 96.727 65.4443L96.1571 64.1959ZM88.116 65.8845V64.5122C85.3949 64.5122 82.9025 64.0092 80.6222 63.0178L80.075 64.2763L79.5278 65.5348C82.1793 66.6877 85.0476 67.2569 88.116 67.2569V65.8845ZM80.075 64.2763L80.6222 63.0178C78.3277 62.0202 76.3697 60.6302 74.7342 58.846L73.7226 59.7733L72.7109 60.7006C74.6134 62.7761 76.8905 64.3882 79.5278 65.5348L80.075 64.2763ZM73.7226 59.7733L74.7342 58.846C73.089 57.0513 71.7823 54.9221 70.8207 52.4423L69.5412 52.9384L68.2617 53.4346C69.3372 56.2082 70.818 58.6357 72.7109 60.7006L73.7226 59.7733ZM69.5412 52.9384L70.8207 52.4423C69.8696 49.9893 69.3857 47.2916 69.3857 44.3345H68.0134H66.6411C66.6411 47.5958 67.1758 50.634 68.2617 53.4346L69.5412 52.9384ZM68.0134 44.3345H69.3857C69.3857 41.3123 69.8465 38.5801 70.749 36.1233L69.4608 35.6501L68.1726 35.1769C67.1453 37.9736 66.6411 41.031 66.6411 44.3345H68.0134ZM69.4608 35.6501L70.7436 36.1376C71.7053 33.6069 73.0084 31.4878 74.6406 29.7567L73.6421 28.8152L72.6436 27.8738C70.7378 29.8952 69.2534 32.3327 68.178 35.1627L69.4608 35.6501ZM73.6421 28.8152L74.6538 29.7426C76.2845 27.9636 78.2345 26.6045 80.5185 25.6611L79.9946 24.3927L79.4707 23.1243C76.8228 24.2179 74.5379 25.8072 72.6305 27.8879L73.6421 28.8152ZM79.9946 24.3927L80.5319 25.6554C82.8658 24.6623 85.4416 24.1568 88.2769 24.1568V22.7845V21.4121C85.1081 21.4121 82.1624 21.9788 79.4572 23.1299L79.9946 24.3927ZM86.9099 25.3576V23.9852C83.2499 23.9852 80.2689 25.5121 78.0845 28.4852L79.1905 29.2977L80.2964 30.1102C81.9718 27.8299 84.1371 26.7299 86.9099 26.7299V25.3576ZM79.1905 29.2977L78.0845 28.4852C75.9322 31.4147 74.9234 35.2128 74.9234 39.7511H76.2957H77.668C77.668 35.605 78.589 32.4342 80.2964 30.1102L79.1905 29.2977ZM76.2957 39.7511H74.9234C74.9234 43.1194 75.2824 46.4098 76.0019 49.6201L77.341 49.3199L78.6801 49.0198C78.0059 46.0117 77.668 42.9228 77.668 39.7511H76.2957ZM77.341 49.3199L76.003 49.6251C76.7231 52.7824 77.7538 55.6336 79.1053 58.1676L80.3162 57.5218L81.5271 56.876C80.3055 54.5854 79.3527 51.9687 78.679 49.0148L77.341 49.3199ZM80.3162 57.5218L79.0958 58.1495C80.1601 60.2189 81.6051 61.8602 83.4417 63.0234L84.1759 61.864L84.9102 60.7046C83.5303 59.8307 82.4022 58.5772 81.5366 56.8942L80.3162 57.5218ZM84.1759 61.864L83.4417 63.0234C85.2661 64.1789 87.2624 64.7641 89.4026 64.7641V63.3918V62.0194C87.7903 62.0194 86.3022 61.5862 84.9102 60.7046L84.1759 61.864ZM89.4026 63.3918V64.7641C93.2685 64.7641 96.3231 63.0336 98.4406 59.706L97.2829 58.9692L96.1251 58.2324C94.4901 60.8016 92.2912 62.0194 89.4026 62.0194V63.3918ZM97.2829 58.9692L98.4372 59.7113C100.56 56.4086 101.55 52.0157 101.55 46.6664H100.178H98.8053C98.8053 51.7168 97.865 55.5258 96.1285 58.2271L97.2829 58.9692ZM100.178 46.6664H101.55C101.55 42.6201 100.968 38.8269 99.7909 35.2966L98.489 35.7306L97.1871 36.1645C98.2618 39.3887 98.8053 42.886 98.8053 46.6664H100.178ZM98.489 35.7306L99.7909 35.2966C98.6167 31.7738 96.9822 28.9902 94.8173 27.0658L93.9056 28.0915L92.9939 29.1172C94.6887 30.6238 96.1099 32.9328 97.1871 36.1645L98.489 35.7306ZM93.9056 28.0915L94.8494 27.0953C93.7209 26.0261 92.4981 25.2214 91.1777 24.7184L90.6892 26.0009L90.2006 27.2833C91.1318 27.638 92.0533 28.2271 92.9618 29.0878L93.9056 28.0915ZM90.6892 26.0009L91.1777 24.7184C89.8735 24.2216 88.4448 23.9852 86.9099 23.9852V25.3576V26.7299C88.1625 26.7299 89.2533 26.9224 90.2006 27.2833L90.6892 26.0009ZM141.988 36.213L140.656 36.5418L140.913 37.5854H141.988V36.213ZM126.871 26.6442L127.774 27.6769L127.786 27.6665L127.798 27.6558L126.871 26.6442ZM128.881 37.4192L129.581 36.239L129.58 36.2382L128.881 37.4192ZM138.771 43.2891L139.474 42.1104L139.472 42.109L138.771 43.2891ZM144.722 48.2746L143.603 49.0688L143.609 49.0775L143.615 49.0862L144.722 48.2746ZM142.631 62.5073L143.552 63.5249L143.554 63.5227L142.631 62.5073ZM138.611 65L139.097 66.2831L139.116 66.2759L139.135 66.2681L138.611 65ZM130.489 65.6433L130.683 64.2847L130.651 64.2802L130.619 64.2771L130.489 65.6433ZM126.79 65L126.457 66.3314L126.47 66.3344L126.79 65ZM120.518 65.4021V66.7744H121.204L121.616 66.2255L120.518 65.4021ZM119.312 65.4021H117.94V66.7744H119.312V65.4021ZM119.312 51.089V49.7166H117.94V51.089H119.312ZM120.76 51.089L122.098 50.7848L121.855 49.7166H120.76V51.089ZM128.238 63.231L127.738 64.5089L127.762 64.5185L127.787 64.5271L128.238 63.231ZM138.048 62.1052L137.161 61.0576L137.151 61.0662L137.141 61.075L138.048 62.1052ZM135.314 50.4457L134.629 51.635L134.637 51.6397L135.314 50.4457ZM130.007 47.3901L130.691 46.2008L130.684 46.1966L130.007 47.3901ZM124.941 44.1737L124.11 45.2663L124.121 45.2741L124.131 45.2817L124.941 44.1737ZM121.644 41.1181L120.572 41.9754L120.583 41.9888L120.594 42.002L121.644 41.1181ZM120.116 29.6194L118.87 29.0443L118.861 29.0643L118.852 29.0846L120.116 29.6194ZM122.689 26.0009L121.769 24.9832L121.756 24.9944L121.744 25.0059L122.689 26.0009ZM138.048 23.9906L138.588 22.7292L138.561 22.7176L138.533 22.7071L138.048 23.9906ZM141.908 23.8298L142.811 24.8626L143.014 24.6849L143.135 24.4435L141.908 23.8298ZM141.988 23.669V22.2966H141.14L140.76 23.0552L141.988 23.669ZM143.114 23.669L144.486 23.6338L144.451 22.2966H143.114V23.669ZM143.435 36.213V37.5854H144.843L144.807 36.1778L143.435 36.213ZM141.988 36.213L143.32 35.8842C142.287 31.6977 140.964 28.5131 139.241 26.5446L138.209 27.4483L137.176 28.352C138.455 29.8143 139.652 32.4728 140.656 36.5418L141.988 36.213ZM138.209 27.4483L139.241 26.5446C137.439 24.4845 134.973 23.5028 132.017 23.5028V24.8751V26.2475C134.315 26.2475 135.976 26.9812 137.176 28.352L138.209 27.4483ZM132.017 24.8751V23.5028C129.612 23.5028 127.538 24.171 125.943 25.6325L126.871 26.6442L127.798 27.6558C128.777 26.7586 130.134 26.2475 132.017 26.2475V24.8751ZM126.871 26.6442L125.967 25.6114C124.351 27.025 123.569 28.9185 123.569 31.1472H124.941H126.313C126.313 29.6233 126.817 28.5149 127.774 27.6769L126.871 26.6442ZM124.941 31.1472H123.569C123.569 34.3454 125.218 36.8461 128.182 38.6002L128.881 37.4192L129.58 36.2382C127.29 34.8831 126.313 33.2023 126.313 31.1472H124.941ZM128.881 37.4192L128.181 38.5993L138.071 44.4693L138.771 43.2891L139.472 42.109L129.581 36.239L128.881 37.4192ZM138.771 43.2891L138.069 44.4679C140.779 46.0833 142.58 47.6279 143.603 49.0688L144.722 48.2746L145.841 47.4804C144.505 45.5977 142.34 43.8186 139.474 42.1104L138.771 43.2891ZM144.722 48.2746L143.615 49.0862C144.596 50.4236 145.119 52.0842 145.119 54.1446H146.491H147.863C147.863 51.5948 147.206 49.342 145.829 47.4631L144.722 48.2746ZM146.491 54.1446H145.119C145.119 55.5469 144.816 56.8712 144.209 58.1326L145.446 58.728L146.682 59.3233C147.468 57.69 147.863 55.9587 147.863 54.1446H146.491ZM145.446 58.728L144.209 58.1326C143.588 59.4224 142.756 60.5392 141.708 61.4918L142.631 62.5073L143.554 63.5227C144.865 62.331 145.909 60.9283 146.682 59.3233L145.446 58.728ZM142.631 62.5073L141.71 61.4896C140.713 62.3918 139.511 63.1423 138.086 63.7319L138.611 65L139.135 66.2681C140.82 65.5711 142.298 64.6598 143.552 63.5249L142.631 62.5073ZM138.611 65L138.124 63.7169C136.735 64.2439 135.239 64.5122 133.625 64.5122V65.8845V67.2569C135.55 67.2569 137.378 66.9355 139.097 66.2831L138.611 65ZM133.625 65.8845V64.5122C132.735 64.5122 131.756 64.438 130.683 64.2847L130.489 65.6433L130.295 67.0018C131.474 67.1703 132.585 67.2569 133.625 67.2569V65.8845ZM130.489 65.6433L130.619 64.2771C129.57 64.1772 128.401 63.9753 127.111 63.6656L126.79 65L126.47 66.3344C127.86 66.668 129.157 66.895 130.359 67.0094L130.489 65.6433ZM126.79 65L127.123 63.6686C126.042 63.3983 125.177 63.2022 124.543 63.0869L124.298 64.4371L124.052 65.7873C124.598 65.8865 125.395 66.0656 126.457 66.3314L126.79 65ZM124.298 64.4371L124.543 63.0869C123.882 62.9667 123.236 62.904 122.609 62.904V64.2763V65.6486C123.054 65.6486 123.534 65.6931 124.052 65.7873L124.298 64.4371ZM122.609 64.2763V62.904C121.98 62.904 121.281 62.9903 120.697 63.3408L121.403 64.5175L122.109 65.6943C122.073 65.7156 122.082 65.7007 122.175 65.6823C122.265 65.6643 122.405 65.6486 122.609 65.6486V64.2763ZM121.403 64.5175L120.697 63.3408C120.205 63.6358 119.783 64.0947 119.42 64.5787L120.518 65.4021L121.616 66.2255C121.897 65.8517 122.065 65.7209 122.109 65.6943L121.403 64.5175ZM120.518 65.4021V64.0297H119.312V65.4021V66.7744H120.518V65.4021ZM119.312 65.4021H120.684V51.089H119.312H117.94V65.4021H119.312ZM119.312 51.089V52.4613H120.76V51.089V49.7166H119.312V51.089ZM120.76 51.089L119.421 51.3931C119.97 53.8059 120.609 55.8759 121.35 57.585L122.609 57.0394L123.868 56.4937C123.215 54.9864 122.622 53.0895 122.098 50.7848L120.76 51.089ZM122.609 57.0394L121.35 57.585C122.089 59.2921 122.966 60.7404 123.999 61.8945L125.021 60.9795L126.044 60.0644C125.254 59.1815 124.522 58.0031 123.868 56.4937L122.609 57.0394ZM125.021 60.9795L123.999 61.8945C125.048 63.068 126.298 63.9456 127.738 64.5089L128.238 63.231L128.738 61.953C127.712 61.5514 126.817 60.928 126.044 60.0644L125.021 60.9795ZM128.238 63.231L127.787 64.5271C129.189 65.015 130.739 65.2466 132.419 65.2466V63.8743V62.5019C130.989 62.5019 129.752 62.3046 128.689 61.9348L128.238 63.231ZM132.419 63.8743V65.2466C135.047 65.2466 137.287 64.6026 138.954 63.1355L138.048 62.1052L137.141 61.075C136.128 61.9666 134.616 62.5019 132.419 62.5019V63.8743ZM138.048 62.1052L138.934 63.1528C140.674 61.6806 141.511 59.6688 141.511 57.2806H140.138H138.766C138.766 58.9665 138.209 60.1711 137.161 61.0576L138.048 62.1052ZM140.138 57.2806H141.511C141.511 53.882 139.465 51.2205 135.99 49.2517L135.314 50.4457L134.637 51.6397C137.596 53.3162 138.766 55.2112 138.766 57.2806H140.138ZM135.314 50.4457L135.999 49.2564L130.691 46.2008L130.007 47.3901L129.322 48.5794L134.629 51.635L135.314 50.4457ZM130.007 47.3901L130.684 46.1966C128.733 45.0891 127.091 44.0452 125.751 43.0656L124.941 44.1737L124.131 45.2817C125.578 46.3392 127.314 47.4396 129.329 48.5836L130.007 47.3901ZM124.941 44.1737L125.771 43.0811C124.492 42.1085 123.472 41.158 122.694 40.2341L121.644 41.1181L120.594 42.002C121.532 43.1152 122.71 44.2018 124.11 45.2663L124.941 44.1737ZM121.644 41.1181L122.716 40.2608C121.943 39.2955 121.413 38.3374 121.097 37.3873L119.795 37.8212L118.493 38.2552C118.926 39.5566 119.629 40.7963 120.572 41.9754L121.644 41.1181ZM119.795 37.8212L121.097 37.3873C120.772 36.4127 120.604 35.3542 120.604 34.2028H119.232H117.859C117.859 35.6244 118.067 36.9782 118.493 38.2552L119.795 37.8212ZM119.232 34.2028H120.604C120.604 32.7065 120.869 31.3627 121.38 30.1541L120.116 29.6194L118.852 29.0846C118.184 30.6635 117.859 32.3753 117.859 34.2028H119.232ZM120.116 29.6194L121.362 30.1944C121.936 28.9523 122.693 27.8902 123.635 26.9958L122.689 26.0009L121.744 25.0059C120.541 26.1487 119.583 27.4989 118.87 29.0443L120.116 29.6194ZM122.689 26.0009L123.61 27.0185C124.587 26.1342 125.763 25.4471 127.157 24.9663L126.71 23.669L126.263 22.3716C124.548 22.963 123.043 23.8305 121.769 24.9832L122.689 26.0009ZM126.71 23.669L127.157 24.9663C128.549 24.4864 130.111 24.2372 131.856 24.2372V22.8649V21.4925C129.849 21.4925 127.98 21.7794 126.263 22.3716L126.71 23.669ZM131.856 22.8649V24.2372C133.836 24.2372 135.736 24.583 137.562 25.2741L138.048 23.9906L138.533 22.7071C136.393 21.8972 134.165 21.4925 131.856 21.4925V22.8649ZM138.048 23.9906L137.507 25.252C138.659 25.7457 139.735 26.0866 140.621 26.0866V24.7143V23.342C140.328 23.342 139.688 23.2004 138.588 22.7292L138.048 23.9906ZM140.621 24.7143V26.0866C141.047 26.0866 141.618 25.9792 142.074 25.5239L141.103 24.5535L140.133 23.5831C140.247 23.4691 140.371 23.4047 140.468 23.3722C140.559 23.3419 140.618 23.342 140.621 23.342V24.7143ZM141.103 24.5535L142.074 25.5239C142.142 25.4559 142.371 25.2478 142.811 24.8626L141.908 23.8298L141.004 22.797C140.586 23.1623 140.279 23.4366 140.133 23.5831L141.103 24.5535ZM141.908 23.8298L143.135 24.4435L143.215 24.2827L141.988 23.669L140.76 23.0552L140.68 23.2161L141.908 23.8298ZM141.988 23.669V25.0413H143.114V23.669V22.2966H141.988V23.669ZM143.114 23.669L141.742 23.7041L142.063 36.2482L143.435 36.213L144.807 36.1778L144.486 23.6338L143.114 23.669ZM143.435 36.213V34.8407H141.988V36.213V37.5854H143.435V36.213ZM176.963 26.5637V27.9361H178.336V26.5637H176.963ZM167.636 26.5637V25.1914H166.263V26.5637H167.636ZM168.761 59.2908L167.576 59.9823L167.582 59.9934L167.589 60.0044L168.761 59.2908ZM175.194 60.497L175.84 61.7079L175.871 61.6916L175.9 61.6738L175.194 60.497ZM178.009 57.9239L178.979 56.9535L177.939 55.913L176.973 57.0234L178.009 57.9239ZM179.134 59.0496L180.293 59.7855L180.883 58.857L180.105 58.0792L179.134 59.0496ZM159.916 26.5637H161.289V25.1914H159.916V26.5637ZM155.092 26.5637L154.759 27.8951L154.923 27.9361H155.092V26.5637ZM156.298 24.2318L155.611 23.0436L155.588 23.0571L155.565 23.0715L156.298 24.2318ZM165.223 14.4218L166.354 15.1992L166.371 15.1745L166.387 15.1491L165.223 14.4218ZM166.108 13.2156L165.075 12.3119L165.066 12.3225L166.108 13.2156ZM167.073 11.8486V10.4763H166.265L165.873 11.1821L167.073 11.8486ZM167.475 12.0898L166.173 12.5238L166.231 12.6982L166.333 12.8511L167.475 12.0898ZM167.636 23.669H166.263V25.0413H167.636V23.669ZM176.963 23.669H178.336V22.2966H176.963V23.669ZM176.963 26.5637V25.1914H167.636V26.5637V27.9361H176.963V26.5637ZM167.636 26.5637H166.263V52.9384H167.636H169.008V26.5637H167.636ZM167.636 52.9384H166.263C166.263 55.9345 166.632 58.3647 167.576 59.9823L168.761 59.2908L169.947 58.5994C169.389 57.6438 169.008 55.8391 169.008 52.9384H167.636ZM168.761 59.2908L167.589 60.0044C168.63 61.7148 170.325 62.5126 172.38 62.5126V61.1403V59.768C171.111 59.768 170.394 59.3328 169.934 58.5773L168.761 59.2908ZM172.38 61.1403V62.5126C173.638 62.5126 174.805 62.26 175.84 61.7079L175.194 60.497L174.548 59.2861C173.975 59.5917 173.267 59.768 172.38 59.768V61.1403ZM175.194 60.497L175.9 61.6738C176.887 61.0818 177.937 60.0981 179.044 58.8244L178.009 57.9239L176.973 57.0234C175.936 58.2156 175.11 58.9473 174.488 59.3202L175.194 60.497ZM178.009 57.9239L177.038 58.8943L178.164 60.02L179.134 59.0496L180.105 58.0792L178.979 56.9535L178.009 57.9239ZM179.134 59.0496L177.976 58.3137C175.275 62.5654 171.972 64.5122 168.038 64.5122V65.8845V67.2569C173.109 67.2569 177.204 64.6471 180.293 59.7855L179.134 59.0496ZM168.038 65.8845V64.5122C165.705 64.5122 164.13 63.7031 163.073 62.1853C161.953 60.5772 161.289 57.9944 161.289 54.225H159.916H158.544C158.544 58.2286 159.233 61.4755 160.821 63.754C162.47 66.1227 164.956 67.2569 168.038 67.2569V65.8845ZM159.916 54.225H161.289V26.5637H159.916H158.544V54.225H159.916ZM159.916 26.5637V25.1914H155.092V26.5637V27.9361H159.916V26.5637ZM155.092 26.5637L155.424 25.2324C155.531 25.2589 155.654 25.3105 155.774 25.4005C155.895 25.491 155.983 25.5985 156.042 25.702C156.151 25.8927 156.142 26.0311 156.142 26.0009H154.77H153.398C153.398 26.2923 153.443 26.6854 153.659 27.0637C153.903 27.4906 154.298 27.7799 154.759 27.8951L155.092 26.5637ZM154.77 26.0009H156.142C156.142 26.1838 156.056 26.2098 156.191 26.0536C156.322 25.9009 156.58 25.6764 157.031 25.3921L156.298 24.2318L155.565 23.0715C154.997 23.4306 154.491 23.8225 154.113 24.2596C153.739 24.693 153.398 25.2819 153.398 26.0009H154.77ZM156.298 24.2318L156.984 25.4201C159.687 23.8587 162.81 20.355 166.354 15.1992L165.223 14.4218L164.092 13.6443C160.561 18.7811 157.733 21.8174 155.611 23.0436L156.298 24.2318ZM165.223 14.4218L166.387 15.1491C166.62 14.7771 166.874 14.4306 167.15 14.1087L166.108 13.2156L165.066 12.3225C164.699 12.7511 164.363 13.2087 164.06 13.6944L165.223 14.4218ZM166.108 13.2156L167.141 14.1193C167.578 13.6198 167.956 13.085 168.272 12.5151L167.073 11.8486L165.873 11.1821C165.654 11.5772 165.389 11.9536 165.075 12.3119L166.108 13.2156ZM167.073 11.8486V13.221C167.02 13.221 166.839 13.2125 166.628 13.0857C166.39 12.9426 166.24 12.7258 166.173 12.5238L167.475 12.0898L168.777 11.6559C168.656 11.293 168.413 10.9557 168.04 10.7321C167.695 10.5249 167.34 10.4763 167.073 10.4763V11.8486ZM167.475 12.0898L166.333 12.8511C166.275 12.7637 166.25 12.6959 166.243 12.6746C166.235 12.651 166.237 12.6489 166.242 12.6773C166.252 12.7374 166.263 12.8569 166.263 13.0548H167.636H169.008C169.008 12.7702 168.993 12.4876 168.949 12.2261C168.909 11.9878 168.828 11.645 168.617 11.3286L167.475 12.0898ZM167.636 13.0548H166.263V23.669H167.636H169.008V13.0548H167.636ZM167.636 23.669V25.0413H176.963V23.669V22.2966H167.636V23.669ZM176.963 23.669H175.591V26.5637H176.963H178.336V23.669H176.963ZM183.071 27.8503L182.606 26.5591L181.699 26.8858V27.8503H183.071ZM186.77 26.5637L187.204 27.8657L187.232 27.8565L187.259 27.8462L186.77 26.5637ZM189.987 25.3576L190.461 26.6453L190.479 26.6388L190.496 26.6318L189.987 25.3576ZM193.123 24.1514L193.597 25.4392L193.615 25.4326L193.632 25.4256L193.123 24.1514ZM196.58 22.7845L196.957 21.4649L196.512 21.3376L196.08 21.5065L196.58 22.7845ZM197.143 22.9453H198.515V21.9101L197.52 21.6257L197.143 22.9453ZM197.143 31.3884H195.771V35.8611L198.279 32.1581L197.143 31.3884ZM200.199 27.2874L201.244 28.1762L201.255 28.1637L201.265 28.1509L200.199 27.2874ZM202.852 24.6339L203.676 25.7318L203.697 25.7158L203.718 25.699L202.852 24.6339ZM205.345 23.1865L204.936 21.8766L204.923 21.8805L204.911 21.8846L205.345 23.1865ZM211.778 24.1514L210.807 25.1218L210.822 25.1365L210.837 25.1508L211.778 24.1514ZM212.18 30.7451L213.188 31.6759L213.205 31.6574L213.222 31.6382L212.18 30.7451ZM207.838 31.4688L207.224 32.6963L207.295 32.7315L207.369 32.7585L207.838 31.4688ZM205.908 29.941L206.878 28.9706L206.85 28.9421L206.82 28.9153L205.908 29.941ZM201.405 29.4585L202.186 30.5869L202.194 30.5811L202.203 30.5752L201.405 29.4585ZM198.671 62.1052L197.748 63.1207L197.774 63.1447L197.802 63.1674L198.671 62.1052ZM204.943 63.7134H206.315V62.3876L204.99 62.3419L204.943 63.7134ZM204.943 65V66.3723H206.315V65H204.943ZM182.83 65H181.458V66.3723H182.83V65ZM182.83 63.7134L182.58 62.364L181.458 62.5719V63.7134H182.83ZM186.288 62.9093L186.697 64.2192L186.721 64.2117L186.744 64.2034L186.288 62.9093ZM188.298 61.7836L187.386 60.7579L187.356 60.7847L187.328 60.8132L188.298 61.7836ZM189.182 60.095L187.841 59.8074L187.832 59.8466L187.826 59.8863L189.182 60.095ZM188.7 30.1018L187.504 30.7746L187.513 30.7914L187.523 30.8079L188.7 30.1018ZM184.679 28.8957L184.528 27.5317L184.519 27.5327L184.509 27.5339L184.679 28.8957ZM183.071 29.2173H181.699V30.975L183.404 30.5487L183.071 29.2173ZM183.071 27.8503L183.536 29.1415C184.868 28.6621 186.091 28.2369 187.204 27.8657L186.77 26.5637L186.336 25.2618C185.198 25.6411 183.955 26.0737 182.606 26.5591L183.071 27.8503ZM186.77 26.5637L187.259 27.8462C188.38 27.4189 189.448 27.0187 190.461 26.6453L189.987 25.3576L189.512 24.0699C188.488 24.447 187.412 24.8509 186.282 25.2813L186.77 26.5637ZM189.987 25.3576L190.496 26.6318C191.557 26.2073 192.591 25.8098 193.597 25.4392L193.123 24.1514L192.648 22.8637C191.617 23.2436 190.56 23.6502 189.477 24.0834L189.987 25.3576ZM193.123 24.1514L193.632 25.4256C194.701 24.9982 195.85 24.5438 197.08 24.0624L196.58 22.7845L196.08 21.5065C194.844 21.99 193.689 22.4469 192.613 22.8772L193.123 24.1514ZM196.58 22.7845L196.203 24.104L196.766 24.2648L197.143 22.9453L197.52 21.6257L196.957 21.4649L196.58 22.7845ZM197.143 22.9453H195.771V31.3884H197.143H198.515V22.9453H197.143ZM197.143 31.3884L198.279 32.1581C199.388 30.5217 200.376 29.1981 201.244 28.1762L200.199 27.2874L199.153 26.3986C198.199 27.521 197.15 28.9314 196.007 30.6187L197.143 31.3884ZM200.199 27.2874L201.265 28.1509C202.129 27.0845 202.934 26.2883 203.676 25.7318L202.852 24.6339L202.029 23.536C201.055 24.2661 200.091 25.2389 199.132 26.424L200.199 27.2874ZM202.852 24.6339L203.718 25.699C204.484 25.0763 205.171 24.691 205.779 24.4884L205.345 23.1865L204.911 21.8846C203.91 22.2181 202.936 22.7977 201.987 23.5688L202.852 24.6339ZM205.345 23.1865L205.754 24.4964C206.47 24.2727 207.243 24.1568 208.079 24.1568V22.7845V21.4121C206.985 21.4121 205.935 21.5642 204.936 21.8766L205.345 23.1865ZM208.079 22.7845V24.1568C209.35 24.1568 210.205 24.5195 210.807 25.1218L211.778 24.1514L212.748 23.181C211.528 21.9607 209.917 21.4121 208.079 21.4121V22.7845ZM211.778 24.1514L210.837 25.1508C211.429 25.7079 211.772 26.4753 211.772 27.6091H213.145H214.517C214.517 25.8481 213.949 24.3104 212.718 23.1521L211.778 24.1514ZM213.145 27.6091H211.772C211.772 28.7387 211.503 29.4266 211.138 29.852L212.18 30.7451L213.222 31.6382C214.144 30.5626 214.517 29.1598 214.517 27.6091H213.145ZM212.18 30.7451L211.172 29.8143C210.823 30.1916 210.351 30.4181 209.607 30.4181V31.7904V33.1628C211.007 33.1628 212.25 32.6924 213.188 31.6759L212.18 30.7451ZM209.607 31.7904V30.4181C209.187 30.4181 208.756 30.3424 208.307 30.1791L207.838 31.4688L207.369 32.7585C208.099 33.0241 208.847 33.1628 209.607 33.1628V31.7904ZM207.838 31.4688L208.451 30.2413C208.112 30.0715 207.592 29.6841 206.878 28.9706L205.908 29.941L204.937 30.9114C205.725 31.6988 206.492 32.3301 207.224 32.6963L207.838 31.4688ZM205.908 29.941L206.82 28.9153C206.276 28.4321 205.721 28.0318 205.155 27.7486L204.541 28.9761L203.927 30.2035C204.218 30.3492 204.575 30.5922 204.996 30.9667L205.908 29.941ZM204.541 28.9761L205.155 27.7486C204.663 27.5028 204.084 27.2821 203.496 27.2821V28.6544V30.0268C203.454 30.0268 203.467 30.0197 203.554 30.0465C203.638 30.0722 203.761 30.1202 203.927 30.2035L204.541 28.9761ZM203.496 28.6544V27.2821C202.466 27.2821 201.493 27.7088 200.607 28.3418L201.405 29.4585L202.203 30.5752C202.817 30.1361 203.238 30.0268 203.496 30.0268V28.6544ZM201.405 29.4585L200.624 28.3302C199.816 28.8896 199.06 29.5895 198.353 30.4149L199.395 31.308L200.437 32.2011C201.016 31.5254 201.6 30.9924 202.186 30.5869L201.405 29.4585ZM199.395 31.308L198.353 30.4149C197.639 31.2479 197.04 32.1454 196.559 33.1066L197.786 33.7203L199.014 34.334C199.391 33.5797 199.864 32.869 200.437 32.2011L199.395 31.308ZM197.786 33.7203L196.559 33.1066C196.06 34.1035 195.771 35.1183 195.771 36.1326H197.143H198.515C198.515 35.646 198.655 35.0525 199.014 34.334L197.786 33.7203ZM197.143 36.1326H195.771V56.7981H197.143H198.515V36.1326H197.143ZM197.143 56.7981H195.771C195.771 58.1509 195.883 59.3438 196.133 60.3474L197.465 60.0145L198.796 59.6817C198.618 58.9699 198.515 58.0185 198.515 56.7981H197.143ZM197.465 60.0145L196.133 60.3474C196.406 61.4381 196.936 62.3827 197.748 63.1207L198.671 62.1052L199.594 61.0898C199.227 60.7556 198.952 60.3064 198.796 59.6817L197.465 60.0145ZM198.671 62.1052L197.802 63.1674C198.59 63.8124 199.593 64.258 200.734 64.5581L201.083 63.231L201.432 61.9038C200.536 61.6679 199.931 61.3629 199.54 61.0431L198.671 62.1052ZM201.083 63.231L200.734 64.5581C201.886 64.8613 203.283 65.0293 204.896 65.085L204.943 63.7134L204.99 62.3419C203.494 62.2903 202.318 62.1368 201.432 61.9038L201.083 63.231ZM204.943 63.7134H203.571V65H204.943H206.315V63.7134H204.943ZM204.943 65V63.6277H182.83V65V66.3723H204.943V65ZM182.83 65H184.202V63.7134H182.83H181.458V65H182.83ZM182.83 63.7134L183.08 65.0628C184.552 64.7902 185.765 64.5106 186.697 64.2192L186.288 62.9093L185.878 61.5995C185.095 61.8442 184.003 62.1006 182.58 62.364L182.83 63.7134ZM186.288 62.9093L186.744 64.2034C187.747 63.8497 188.634 63.3886 189.268 62.754L188.298 61.7836L187.328 60.8132C187.105 61.0362 186.651 61.3257 185.831 61.6152L186.288 62.9093ZM188.298 61.7836L189.21 62.8093C189.954 62.1481 190.388 61.2851 190.539 60.3036L189.182 60.095L187.826 59.8863C187.763 60.2986 187.607 60.5614 187.386 60.7579L188.298 61.7836ZM189.182 60.095L190.524 60.3825C190.712 59.5048 190.796 58.4626 190.796 57.2806H189.424H188.051C188.051 58.35 187.974 59.1841 187.841 59.8074L189.182 60.095ZM189.424 57.2806H190.796V34.3636H189.424H188.051V57.2806H189.424ZM189.424 34.3636H190.796C190.796 32.3067 190.568 30.5484 189.877 29.3957L188.7 30.1018L187.523 30.8079C187.797 31.2635 188.051 32.3463 188.051 34.3636H189.424ZM188.7 30.1018L189.896 29.429C189.131 28.0691 187.823 27.4429 186.288 27.4429V28.8152V30.1876C187.004 30.1876 187.304 30.4191 187.504 30.7746L188.7 30.1018ZM186.288 28.8152V27.4429C185.658 27.4429 185.07 27.4715 184.528 27.5317L184.679 28.8957L184.831 30.2596C185.254 30.2126 185.738 30.1876 186.288 30.1876V28.8152ZM184.679 28.8957L184.509 27.5339C184.005 27.597 183.41 27.718 182.738 27.8859L183.071 29.2173L183.404 30.5487C184.019 30.395 184.496 30.3016 184.85 30.2574L184.679 28.8957ZM183.071 29.2173H184.444V27.8503H183.071H181.699V29.2173H183.071ZM250.693 59.6125L249.45 60.1928L249.458 60.2096L249.466 60.2262L250.693 59.6125ZM256.885 59.0496H258.257V56.2437L256.042 57.9664L256.885 59.0496ZM256.885 61.3815L257.902 62.3031L258.257 61.9109V61.3815H256.885ZM244.502 64.3567L243.43 65.214L243.454 65.2436L243.479 65.2718L244.502 64.3567ZM242.894 59.0496L244.261 58.9307L244.028 56.2531L241.996 58.0119L242.894 59.0496ZM222.389 63.1506L221.404 64.1064L221.411 64.1137L221.418 64.1209L222.389 63.1506ZM220.539 51.7323L219.262 51.2305L219.257 51.243L219.252 51.2556L220.539 51.7323ZM223.032 48.1138L223.921 49.1594L223.932 49.1496L223.944 49.1395L223.032 48.1138ZM225.686 45.9427L226.497 47.0494L226.503 47.045L226.509 47.0406L225.686 45.9427ZM228.983 44.0128L229.576 45.25L229.596 45.2405L229.616 45.2304L228.983 44.0128ZM242.733 38.2233L243.252 39.4934L244.105 39.1446V38.2233H242.733ZM240.883 26.6442L239.872 27.5715L239.882 27.5827L239.892 27.5937L240.883 26.6442ZM230.993 26.0813L231.776 27.2079L231.786 27.2011L230.993 26.0813ZM229.304 31.0667L227.946 31.2608L227.952 31.3078L227.962 31.3543L229.304 31.0667ZM228.259 35.6501L227.355 34.6174L227.339 34.6319L227.322 34.6469L228.259 35.6501ZM222.63 35.6501L221.627 36.5865L221.659 36.6211L221.694 36.6534L222.63 35.6501ZM222.469 29.2173L221.275 28.542L221.263 28.5621L221.253 28.5825L222.469 29.2173ZM225.284 25.9205L226.153 26.9826L226.169 26.9696L226.184 26.956L225.284 25.9205ZM230.189 23.4277L229.816 22.1069L229.807 22.1095L230.189 23.4277ZM243.939 23.9906L243.311 25.211L243.332 25.2216L243.353 25.2315L243.939 23.9906ZM248.361 27.8503L249.538 27.1442L249.532 27.1332L248.361 27.8503ZM249.728 31.6296L248.379 31.8795L248.381 31.8888L249.728 31.6296ZM242.733 40.4748H244.105V38.5123L242.262 39.1858L242.733 40.4748ZM235.576 43.45L236.162 44.6909L236.169 44.6875L236.177 44.684L235.576 43.45ZM230.832 46.3447L231.701 47.4069L231.706 47.4028L230.832 46.3447ZM227.937 56.3961L226.643 56.8528L226.648 56.8654L226.652 56.8779L227.937 56.3961ZM229.224 58.6476L228.169 59.5261L228.19 59.551L228.212 59.5749L229.224 58.6476ZM236.782 60.1754L237.198 61.4831L237.216 61.4776L237.233 61.4715L236.782 60.1754ZM242.25 56.7981L241.023 56.1844L241.002 56.2267L240.983 56.2703L242.25 56.7981ZM250.13 55.3507H248.758C248.758 57.3935 248.934 59.0884 249.45 60.1928L250.693 59.6125L251.937 59.0322C251.702 58.5284 251.503 57.3821 251.503 55.3507H250.13ZM250.693 59.6125L249.466 60.2262C250.142 61.5774 251.444 62.1106 252.864 62.1106V60.7382V59.3659C252.141 59.3659 251.996 59.1486 251.921 58.9988L250.693 59.6125ZM252.864 60.7382V62.1106C254.52 62.1106 256.152 61.3586 257.728 60.1329L256.885 59.0496L256.042 57.9664C254.724 58.9922 253.675 59.3659 252.864 59.3659V60.7382ZM256.885 59.0496H255.513V61.3815H256.885H258.257V59.0496H256.885ZM256.885 61.3815L255.868 60.46C254.353 62.1314 253.108 63.1797 252.127 63.7148L252.784 64.9196L253.441 66.1244C254.819 65.3729 256.307 64.0625 257.902 62.3031L256.885 61.3815ZM252.784 64.9196L252.127 63.7148C251.179 64.232 250.044 64.5122 248.683 64.5122V65.8845V67.2569C250.431 67.2569 252.031 66.8938 253.441 66.1244L252.784 64.9196ZM248.683 65.8845V64.5122C247.046 64.5122 246.089 64.0727 245.524 63.4416L244.502 64.3567L243.479 65.2718C244.737 66.6777 246.568 67.2569 248.683 67.2569V65.8845ZM244.502 64.3567L245.573 63.4994C244.973 62.7494 244.468 61.3148 244.261 58.9307L242.894 59.0496L241.526 59.1685C241.748 61.7163 242.315 63.8198 243.43 65.214L244.502 64.3567ZM242.894 59.0496L241.996 58.0119C239.25 60.3881 236.904 62.053 234.95 63.0552L235.576 64.2763L236.202 65.4974C238.43 64.3553 240.962 62.5357 243.792 60.0873L242.894 59.0496ZM235.576 64.2763L234.95 63.0552C233.017 64.0462 231.194 64.5122 229.465 64.5122V65.8845V67.2569C231.703 67.2569 233.954 66.6507 236.202 65.4974L235.576 64.2763ZM229.465 65.8845V64.5122C226.885 64.5122 224.892 63.7128 223.359 62.1802L222.389 63.1506L221.418 64.1209C223.531 66.2336 226.255 67.2569 229.465 67.2569V65.8845ZM222.389 63.1506L223.374 62.1948C221.888 60.6645 221.108 58.6663 221.108 56.0744H219.735H218.363C218.363 59.2721 219.351 61.9914 221.404 64.1064L222.389 63.1506ZM219.735 56.0744H221.108C221.108 54.8003 221.343 53.5139 221.826 52.2089L220.539 51.7323L219.252 51.2556C218.664 52.8454 218.363 54.4538 218.363 56.0744H219.735ZM220.539 51.7323L221.817 52.2341C222.336 50.9126 223.045 49.9041 223.921 49.1594L223.032 48.1138L222.143 47.0681C220.875 48.1461 219.922 49.55 219.262 51.2305L220.539 51.7323ZM223.032 48.1138L223.944 49.1395C224.885 48.3025 225.736 47.6075 226.497 47.0494L225.686 45.9427L224.874 44.836C224.027 45.4572 223.109 46.2096 222.12 47.0881L223.032 48.1138ZM225.686 45.9427L226.509 47.0406C227.273 46.4673 228.289 45.8682 229.576 45.25L228.983 44.0128L228.389 42.7756C226.996 43.4441 225.813 44.1316 224.862 44.8448L225.686 45.9427ZM228.983 44.0128L229.616 45.2304C230.901 44.5623 232.597 43.8038 234.719 42.9551L234.209 41.6809L233.7 40.4067C231.533 41.2735 229.745 42.0696 228.349 42.7953L228.983 44.0128ZM234.209 41.6809L234.719 42.9551C236.868 42.0955 239.713 40.9414 243.252 39.4934L242.733 38.2233L242.213 36.9531C238.677 38.3999 235.839 39.5509 233.7 40.4067L234.209 41.6809ZM242.733 38.2233H244.105V32.3533H242.733H241.36V38.2233H242.733ZM242.733 32.3533H244.105C244.105 29.6271 243.438 27.3262 241.874 25.6946L240.883 26.6442L239.892 27.5937C240.795 28.5353 241.36 30.0405 241.36 32.3533H242.733ZM240.883 26.6442L241.895 25.7168C240.385 24.0699 238.255 23.342 235.737 23.342V24.7143V26.0866C237.722 26.0866 239.023 26.6453 239.872 27.5715L240.883 26.6442ZM235.737 24.7143V23.342C233.632 23.342 231.759 23.8565 230.2 24.9614L230.993 26.0813L231.786 27.2011C232.799 26.4834 234.09 26.0866 235.737 26.0866V24.7143ZM230.993 26.0813L230.209 24.9547C228.699 26.0055 227.771 27.4343 227.771 29.2173H229.143H230.516C230.516 28.5343 230.821 27.8725 231.776 27.2078L230.993 26.0813ZM229.143 29.2173H227.771C227.771 29.7904 227.834 30.4779 227.946 31.2608L229.304 31.0667L230.663 30.8727C230.56 30.1546 230.516 29.6091 230.516 29.2173H229.143ZM229.304 31.0667L227.962 31.3543C228.113 32.0587 228.173 32.5697 228.173 32.9162H229.545H230.918C230.918 32.2977 230.817 31.5758 230.646 30.7792L229.304 31.0667ZM229.545 32.9162H228.173C228.173 33.5652 227.936 34.1088 227.355 34.6174L228.259 35.6501L229.163 36.6829C230.297 35.6905 230.918 34.4115 230.918 32.9162H229.545ZM228.259 35.6501L227.322 34.6469C226.765 35.167 226.159 35.4035 225.444 35.4035V36.7759V38.1482C226.874 38.1482 228.144 37.6343 229.195 36.6534L228.259 35.6501ZM225.444 36.7759V35.4035C224.73 35.4035 224.124 35.167 223.566 34.6469L222.63 35.6501L221.694 36.6534C222.745 37.6343 224.015 38.1482 225.444 38.1482V36.7759ZM222.63 35.6501L223.633 34.7138C223.113 34.1565 222.877 33.5505 222.877 32.8358H221.504H220.132C220.132 34.2654 220.646 35.5356 221.627 36.5865L222.63 35.6501ZM221.504 32.8358H222.877C222.877 31.9139 223.127 30.9241 223.686 29.8521L222.469 29.2173L221.253 28.5825C220.525 29.9764 220.132 31.399 220.132 32.8358H221.504ZM222.469 29.2173L223.664 29.8926C224.271 28.8185 225.095 27.8481 226.153 26.9826L225.284 25.9205L224.415 24.8583C223.114 25.9227 222.061 27.1501 221.275 28.542L222.469 29.2173ZM225.284 25.9205L226.184 26.956C227.229 26.0475 228.67 25.2961 230.57 24.746L230.189 23.4277L229.807 22.1095C227.633 22.7388 225.804 23.6491 224.383 24.8849L225.284 25.9205ZM230.189 23.4277L230.561 24.7485C232.518 24.1966 234.643 23.9156 236.943 23.9156V22.5432V21.1709C234.419 21.1709 232.041 21.4795 229.816 22.1069L230.189 23.4277ZM236.943 22.5432V23.9156C239.58 23.9156 241.681 24.3728 243.311 25.211L243.939 23.9906L244.567 22.7702C242.444 21.6786 239.882 21.1709 236.943 21.1709V22.5432ZM243.939 23.9906L243.353 25.2315C245.065 26.0401 246.326 27.1549 247.191 28.5675L248.361 27.8503L249.532 27.1332C248.36 25.2221 246.672 23.7638 244.525 22.7497L243.939 23.9906ZM248.361 27.8503L247.185 28.5564C247.73 29.4655 248.136 30.5653 248.379 31.8795L249.728 31.6296L251.078 31.3797C250.785 29.7992 250.279 28.3794 249.538 27.1443L248.361 27.8503ZM249.728 31.6296L248.381 31.8888C248.625 33.1584 248.758 34.9622 248.758 37.3388H250.13H251.503C251.503 34.8907 251.368 32.8884 251.076 31.3704L249.728 31.6296ZM250.13 37.3388H248.758V55.3507H250.13H251.503V37.3388H250.13ZM242.733 40.4748L242.262 39.1858C239.444 40.2153 237.013 41.2249 234.976 42.2159L235.576 43.45L236.177 44.684C238.106 43.7452 240.446 42.7713 243.204 41.7638L242.733 40.4748ZM235.576 43.45L234.99 42.209C232.989 43.154 231.303 44.1759 229.958 45.2867L230.832 46.3447L231.706 47.4028C232.827 46.4765 234.303 45.5686 236.162 44.6909L235.576 43.45ZM230.832 46.3447L229.963 45.2826C228.661 46.3478 227.66 47.5463 227.02 48.8907L228.259 49.4808L229.498 50.0708C229.93 49.1638 230.644 48.2715 231.701 47.4069L230.832 46.3447ZM228.259 49.4808L227.02 48.8907C226.389 50.2144 226.082 51.6509 226.082 53.1796H227.455H228.827C228.827 52.028 229.056 50.9987 229.498 50.0708L228.259 49.4808ZM227.455 53.1796H226.082V53.5817H227.455H228.827V53.1796H227.455ZM227.455 53.5817H226.082C226.082 54.7025 226.27 55.795 226.643 56.8528L227.937 56.3961L229.231 55.9393C228.961 55.1745 228.827 54.3908 228.827 53.5817H227.455ZM227.937 56.3961L226.652 56.8779C227.023 57.8664 227.526 58.7539 228.169 59.5261L229.224 58.6476L230.278 57.769C229.849 57.2547 229.495 56.6412 229.222 55.9142L227.937 56.3961ZM229.224 58.6476L228.212 59.5749C228.91 60.3367 229.714 60.9497 230.62 61.4028L231.234 60.1754L231.848 58.9479C231.253 58.6506 230.716 58.245 230.235 57.7202L229.224 58.6476ZM231.234 60.1754L230.62 61.4028C231.553 61.8691 232.539 62.1106 233.566 62.1106V60.7382V59.3659C232.984 59.3659 232.416 59.2321 231.848 58.9479L231.234 60.1754ZM233.566 60.7382V62.1106C234.705 62.1106 235.921 61.8897 237.198 61.4831L236.782 60.1754L236.366 58.8676C235.285 59.2115 234.356 59.3659 233.566 59.3659V60.7382ZM236.782 60.1754L237.233 61.4715C238.534 61.0191 239.757 60.4792 240.901 59.85L240.24 58.6476L239.579 57.4451C238.578 57.9953 237.497 58.4739 236.331 58.8792L236.782 60.1754ZM240.24 58.6476L240.901 59.85C242.061 59.212 243.068 58.4037 243.517 57.3259L242.25 56.7981L240.983 56.2703C240.896 56.4791 240.563 56.9038 239.579 57.4451L240.24 58.6476ZM242.25 56.7981L243.478 57.4118C243.948 56.4718 244.105 55.1855 244.105 53.7425H242.733H241.36C241.36 55.0871 241.196 55.8379 241.023 56.1844L242.25 56.7981ZM242.733 53.7425H244.105V40.4748H242.733H241.36V53.7425H242.733Z" fill="#1B7660" mask="url(#path-1-outside-1_411_898)"/>
<path d="M0.812261 105.19H2.75284C2.9351 106.863 4.52187 107.967 6.73048 107.967C8.82115 107.967 10.3436 106.863 10.3436 105.34C10.3436 104.032 9.43227 103.228 7.35232 102.692L5.36886 102.178C2.51696 101.449 1.25184 100.194 1.25184 98.0928C1.25184 95.5197 3.50333 93.7185 6.71976 93.7185C9.7968 93.7185 12.0269 95.5411 12.1126 98.1357H10.1828C10.0112 96.4739 8.67105 95.4553 6.65543 95.4553C4.65053 95.4553 3.25674 96.4953 3.25674 98.007C3.25674 99.1757 4.11445 99.8726 6.21585 100.419L7.83478 100.848C11.0405 101.652 12.3378 102.885 12.3378 105.105C12.3378 107.935 10.1077 109.704 6.54821 109.704C3.26746 109.704 0.994525 107.924 0.812261 105.19ZM25.2125 98.2965V109.447H23.4434V107.635H23.4006C22.7358 108.921 21.5779 109.64 19.8625 109.64C17.4287 109.64 16.0028 108.064 16.0028 105.533V98.2965H17.8683V105.201C17.8683 107.013 18.7153 107.989 20.4414 107.989C22.2534 107.989 23.3469 106.745 23.3469 104.847V98.2965H25.2125ZM34.8064 98.1035C37.6476 98.1035 39.5774 100.376 39.5774 103.872C39.5774 107.367 37.6583 109.64 34.8493 109.64C33.2518 109.64 31.9652 108.857 31.3005 107.635H31.2576V113.167H29.3921V98.2965H31.1611V100.183H31.204C31.8902 98.9291 33.1875 98.1035 34.8064 98.1035ZM34.4419 107.999C36.4254 107.999 37.669 106.402 37.669 103.872C37.669 101.352 36.4254 99.7439 34.4419 99.7439C32.5335 99.7439 31.2469 101.395 31.2469 103.872C31.2469 106.359 32.5335 107.999 34.4419 107.999ZM48.6353 98.1035C51.4765 98.1035 53.4063 100.376 53.4063 103.872C53.4063 107.367 51.4872 109.64 48.6782 109.64C47.0807 109.64 45.7941 108.857 45.1294 107.635H45.0865V113.167H43.221V98.2965H44.99V100.183H45.0329C45.7191 98.9291 47.0164 98.1035 48.6353 98.1035ZM48.2708 107.999C50.2543 107.999 51.4979 106.402 51.4979 103.872C51.4979 101.352 50.2543 99.7439 48.2708 99.7439C46.3624 99.7439 45.0758 101.395 45.0758 103.872C45.0758 106.359 46.3624 107.999 48.2708 107.999ZM61.6708 109.64C58.5831 109.64 56.5031 107.42 56.5031 103.872C56.5031 100.312 58.5831 98.1035 61.6708 98.1035C64.7479 98.1035 66.8278 100.312 66.8278 103.872C66.8278 107.42 64.7479 109.64 61.6708 109.64ZM61.6708 107.999C63.6436 107.999 64.9301 106.498 64.9301 103.872C64.9301 101.245 63.6436 99.7439 61.6708 99.7439C59.6981 99.7439 58.4008 101.245 58.4008 103.872C58.4008 106.498 59.6981 107.999 61.6708 107.999ZM70.4714 109.447V98.2965H72.2297V100.119H72.2726C72.6371 98.8862 73.6664 98.1035 74.9744 98.1035C75.296 98.1035 75.5748 98.1571 75.7249 98.1786V99.9905C75.5748 99.9369 75.1781 99.8833 74.7278 99.8833C73.2804 99.8833 72.3369 100.923 72.3369 102.499V109.447H70.4714ZM79.6043 95.6054H81.4698V98.2965H83.6356V99.8297H81.4698V106.456C81.4698 107.474 81.8987 107.935 82.8529 107.935C83.0673 107.935 83.4962 107.903 83.6249 107.881V109.447C83.3997 109.5 82.8851 109.533 82.4455 109.533C80.3977 109.533 79.6043 108.696 79.6043 106.552V99.8297H77.9425V98.2965H79.6043V95.6054ZM95.8438 109.447H93.9354V93.9758H95.8117L104.282 106.123H104.378V93.9758H106.286V109.447H104.41L95.9403 97.3423H95.8438V109.447ZM115.226 99.7225C113.479 99.7225 112.257 101.063 112.139 102.917H118.196C118.153 101.052 116.985 99.7225 115.226 99.7225ZM118.153 106.252H119.987C119.665 108.203 117.778 109.64 115.344 109.64C112.149 109.64 110.209 107.42 110.209 103.915C110.209 100.452 112.182 98.1035 115.259 98.1035C118.271 98.1035 120.126 100.291 120.126 103.668V104.376H112.128V104.483C112.128 106.616 113.382 108.021 115.387 108.021C116.802 108.021 117.842 107.302 118.153 106.252ZM129.184 98.1035C132.025 98.1035 133.955 100.376 133.955 103.872C133.955 107.367 132.036 109.64 129.227 109.64C127.629 109.64 126.343 108.857 125.678 107.635H125.635V113.167H123.77V98.2965H125.539V100.183H125.582C126.268 98.9291 127.565 98.1035 129.184 98.1035ZM128.819 107.999C130.803 107.999 132.047 106.402 132.047 103.872C132.047 101.352 130.803 99.7439 128.819 99.7439C126.911 99.7439 125.624 101.395 125.624 103.872C125.624 106.359 126.911 107.999 128.819 107.999ZM141.276 108.053C143.034 108.053 144.385 106.82 144.385 105.212V104.301L141.405 104.483C139.904 104.579 139.046 105.244 139.046 106.295C139.046 107.356 139.936 108.053 141.276 108.053ZM140.858 109.64C138.639 109.64 137.148 108.3 137.148 106.295C137.148 104.386 138.617 103.185 141.19 103.035L144.385 102.853V101.92C144.385 100.559 143.485 99.7439 141.941 99.7439C140.504 99.7439 139.603 100.419 139.368 101.513H137.566C137.695 99.5831 139.346 98.1035 141.984 98.1035C144.6 98.1035 146.251 99.5188 146.251 101.738V109.447H144.482V107.528H144.439C143.774 108.803 142.359 109.64 140.858 109.64ZM150.473 109.447V93.9758H152.339V109.447H150.473ZM156.711 109.447V98.2965H158.577V109.447H156.711ZM157.644 96.4203C157.012 96.4203 156.486 95.8949 156.486 95.2624C156.486 94.6191 157.012 94.1044 157.644 94.1044C158.287 94.1044 158.813 94.6191 158.813 95.2624C158.813 95.8949 158.287 96.4203 157.644 96.4203ZM168.662 105.19H170.603C170.785 106.863 172.372 107.967 174.581 107.967C176.671 107.967 178.194 106.863 178.194 105.34C178.194 104.032 177.282 103.228 175.202 102.692L173.219 102.178C170.367 101.449 169.102 100.194 169.102 98.0928C169.102 95.5197 171.353 93.7185 174.57 93.7185C177.647 93.7185 179.877 95.5411 179.963 98.1357H178.033C177.861 96.4739 176.521 95.4553 174.506 95.4553C172.501 95.4553 171.107 96.4953 171.107 98.007C171.107 99.1757 171.965 99.8726 174.066 100.419L175.685 100.848C178.891 101.652 180.188 102.885 180.188 105.105C180.188 107.935 177.958 109.704 174.398 109.704C171.118 109.704 168.845 107.924 168.662 105.19ZM184.507 95.6054H186.372V98.2965H188.538V99.8297H186.372V106.456C186.372 107.474 186.801 107.935 187.755 107.935C187.97 107.935 188.399 107.903 188.527 107.881V109.447C188.302 109.5 187.788 109.533 187.348 109.533C185.3 109.533 184.507 108.696 184.507 106.552V99.8297H182.845V98.2965H184.507V95.6054ZM195.752 108.053C197.51 108.053 198.861 106.82 198.861 105.212V104.301L195.881 104.483C194.38 104.579 193.522 105.244 193.522 106.295C193.522 107.356 194.412 108.053 195.752 108.053ZM195.334 109.64C193.114 109.64 191.624 108.3 191.624 106.295C191.624 104.386 193.093 103.185 195.666 103.035L198.861 102.853V101.92C198.861 100.559 197.961 99.7439 196.417 99.7439C194.98 99.7439 194.079 100.419 193.844 101.513H192.042C192.171 99.5831 193.822 98.1035 196.46 98.1035C199.076 98.1035 200.727 99.5188 200.727 101.738V109.447H198.958V107.528H198.915C198.25 108.803 196.835 109.64 195.334 109.64ZM204.853 109.447V98.2965H206.611V100.119H206.654C207.018 98.8862 208.048 98.1035 209.356 98.1035C209.677 98.1035 209.956 98.1571 210.106 98.1786V99.9905C209.956 99.9369 209.559 99.8833 209.109 99.8833C207.662 99.8833 206.718 100.923 206.718 102.499V109.447H204.853ZM213.986 95.6054H215.851V98.2965H218.017V99.8297H215.851V106.456C215.851 107.474 216.28 107.935 217.234 107.935C217.449 107.935 217.877 107.903 218.006 107.881V109.447C217.781 109.5 217.266 109.533 216.827 109.533C214.779 109.533 213.986 108.696 213.986 106.552V99.8297H212.324V98.2965H213.986V95.6054ZM230.924 98.2965V109.447H229.155V107.635H229.112C228.447 108.921 227.289 109.64 225.574 109.64C223.14 109.64 221.714 108.064 221.714 105.533V98.2965H223.58V105.201C223.58 107.013 224.427 107.989 226.153 107.989C227.965 107.989 229.058 106.745 229.058 104.847V98.2965H230.924ZM240.518 98.1035C243.359 98.1035 245.289 100.376 245.289 103.872C245.289 107.367 243.37 109.64 240.561 109.64C238.963 109.64 237.676 108.857 237.012 107.635H236.969V113.167H235.103V98.2965H236.872V100.183H236.915C237.601 98.9291 238.899 98.1035 240.518 98.1035ZM240.153 107.999C242.137 107.999 243.38 106.402 243.38 103.872C243.38 101.352 242.137 99.7439 240.153 99.7439C238.245 99.7439 236.958 101.395 236.958 103.872C236.958 106.359 238.245 107.999 240.153 107.999ZM248.739 101.374C248.739 99.4651 250.444 98.1035 252.899 98.1035C255.204 98.1035 256.898 99.4759 256.984 101.363H255.204C255.076 100.291 254.207 99.626 252.835 99.626C251.473 99.626 250.573 100.301 250.573 101.277C250.573 102.049 251.162 102.564 252.427 102.885L254.154 103.303C256.405 103.872 257.22 104.686 257.22 106.327C257.22 108.267 255.387 109.64 252.781 109.64C250.337 109.64 248.632 108.31 248.439 106.338H250.305C250.508 107.495 251.387 108.117 252.899 108.117C254.411 108.117 255.344 107.474 255.344 106.466C255.344 105.673 254.883 105.244 253.628 104.912L251.666 104.408C249.704 103.904 248.739 102.896 248.739 101.374Z" fill="#0D7A5F"/>
</svg>
