<svg width="152" height="45" viewBox="0 0 152 45" fill="none" xmlns="http://www.w3.org/2000/svg">
<g filter="url(#filter0_d_500_933)">
<mask id="path-1-outside-1_500_933" maskUnits="userSpaceOnUse" x="3.61554" y="-0.184021" width="145" height="37" fill="black">
<rect fill="white" x="3.61554" y="-0.184021" width="145" height="37"/>
<path d="M19.2111 0.822229C23.6776 0.822229 27.0351 1.55666 29.2833 3.02553C31.5316 4.49439 32.6557 6.66771 32.6557 9.54549C32.6557 10.5947 32.4759 11.5839 32.1161 12.5132C31.7564 13.4125 31.2468 14.1469 30.5873 14.7165C30.2576 14.9863 29.9428 15.2261 29.643 15.4359C29.3433 15.6458 28.9985 15.8406 28.6088 16.0205C28.2491 16.1704 27.8145 16.3203 27.3048 16.4701C26.8252 16.62 26.2557 16.7849 25.5962 16.9648C26.4355 17.1446 27.155 17.3245 27.7545 17.5043C28.384 17.6842 28.9386 17.894 29.4182 18.1339C29.8978 18.3437 30.3325 18.5835 30.7222 18.8533C31.1119 19.1231 31.5016 19.4379 31.8913 19.7976C33.57 21.2964 34.4094 23.2299 34.4094 25.5981C34.4094 27.037 34.1246 28.326 33.555 29.4651C32.9855 30.6042 32.1611 31.5785 31.0819 32.3879C30.0028 33.1673 28.6988 33.7668 27.1699 34.1865C25.6411 34.6061 23.9175 34.816 21.9989 34.816H4.82221V33.8717C5.8714 33.8417 6.71075 33.7668 7.34026 33.6469C7.99975 33.497 8.50936 33.2572 8.86908 32.9274C9.2288 32.5977 9.46862 32.148 9.58852 31.5785C9.70843 30.9789 9.76839 30.2145 9.76839 29.2852V6.44289C9.76839 5.48363 9.70843 4.71922 9.58852 4.14966C9.49859 3.5801 9.27377 3.13045 8.91405 2.8007C8.55432 2.47096 8.04472 2.24613 7.38523 2.12622C6.75571 2.00631 5.90137 1.91638 4.82221 1.85643V0.822229H19.2111ZM14.9394 30.8141C14.9394 31.6534 15.1642 32.223 15.6139 32.5227C16.0635 32.7925 16.8879 32.9274 18.087 32.9274C18.9863 32.9274 19.7807 32.9124 20.4701 32.8825C21.1896 32.8225 21.8341 32.7476 22.4036 32.6576C23.0032 32.5377 23.5427 32.3879 24.0224 32.208C24.502 32.0281 24.9517 31.8183 25.3713 31.5785C27.4697 30.3794 28.5189 28.4009 28.5189 25.6431C28.5189 22.4056 27.0351 20.2173 24.0673 19.0781C23.5877 18.8983 23.0631 18.7484 22.4936 18.6285C21.954 18.5086 21.3245 18.4186 20.605 18.3587C19.9156 18.2688 19.1062 18.2088 18.1769 18.1788C17.2476 18.1189 16.1684 18.0889 14.9394 18.0889V30.8141ZM19.8856 16.0205C22.3137 16.0205 24.1723 15.4959 25.4613 14.4467C26.7802 13.3675 27.4397 11.8087 27.4397 9.77032C27.4397 7.43212 26.6753 5.67848 25.1465 4.50938C23.6177 3.34028 21.3544 2.75574 18.3568 2.75574H16.1085C15.3291 2.75574 14.9394 3.26534 14.9394 4.28455V16.0205H19.8856ZM52.8433 11.2092C54.4921 11.2092 56.0059 11.494 57.3848 12.0635C58.7638 12.6331 59.9478 13.4425 60.9371 14.4917C61.9563 15.5109 62.7507 16.7249 63.3202 18.1339C63.8898 19.5428 64.1746 21.1016 64.1746 22.8102C64.1746 24.6089 63.8748 26.2726 63.2753 27.8014C62.7057 29.3002 61.9113 30.6192 60.8921 31.7583C59.8729 32.8675 58.6588 33.7368 57.2499 34.3663C55.871 34.9958 54.3721 35.3106 52.7534 35.3106C51.1346 35.3106 49.6358 35.0108 48.2569 34.4113C46.8779 33.8118 45.6938 32.9724 44.7046 31.8932C43.7154 30.8141 42.936 29.5401 42.3664 28.0712C41.7969 26.6023 41.5121 24.9986 41.5121 23.2599C41.5121 21.4913 41.7819 19.8725 42.3215 18.4037C42.891 16.9048 43.6704 15.6308 44.6596 14.5816C45.6489 13.5024 46.833 12.6781 48.2119 12.1085C49.6208 11.509 51.1646 11.2092 52.8433 11.2092ZM52.0789 12.6481C50.2803 12.6481 48.8414 13.3825 47.7622 14.8514C46.6831 16.3203 46.1435 18.2688 46.1435 20.6969C46.1435 22.5255 46.3383 24.3091 46.728 26.0477C47.1177 27.7564 47.6723 29.2852 48.3918 30.6342C48.9313 31.6834 49.6508 32.4928 50.5501 33.0623C51.4494 33.6319 52.4236 33.9167 53.4728 33.9167C55.3614 33.9167 56.8302 33.0923 57.8794 31.4436C58.9586 29.7649 59.4982 27.4717 59.4982 24.5639C59.4982 22.3756 59.1834 20.3372 58.5539 18.4486C57.9244 16.5601 57.0701 15.1362 55.9909 14.1769C55.4213 13.6373 54.8218 13.2476 54.1923 13.0078C53.5628 12.768 52.8583 12.6481 52.0789 12.6481ZM82.8783 18.7184C82.3088 16.4102 81.6043 14.7765 80.765 13.8172C79.9256 12.8579 78.7715 12.3783 77.3026 12.3783C76.1036 12.3783 75.1443 12.7081 74.4249 13.3675C73.7054 13.9971 73.3457 14.8364 73.3457 15.8856C73.3457 17.3545 74.0801 18.5236 75.549 19.3929L81.0797 22.6754C82.6385 23.6046 83.7477 24.5339 84.4072 25.4632C85.0666 26.3625 85.3964 27.4567 85.3964 28.7457C85.3964 29.645 85.2015 30.4993 84.8118 31.3087C84.4221 32.1181 83.8975 32.8225 83.2381 33.4221C82.6085 33.9916 81.8591 34.4563 80.9898 34.816C80.1205 35.1457 79.1912 35.3106 78.2019 35.3106C77.6624 35.3106 77.0778 35.2656 76.4483 35.1757C75.8188 35.1157 75.1293 34.9958 74.3799 34.816C73.7804 34.6661 73.3157 34.5612 72.986 34.5012C72.6562 34.4413 72.3415 34.4113 72.0417 34.4113C71.7419 34.4113 71.5171 34.4563 71.3672 34.5462C71.2173 34.6361 71.0525 34.801 70.8726 35.0408H70.1981V27.037H71.0075C71.3073 28.356 71.652 29.4651 72.0417 30.3644C72.4314 31.2637 72.8811 31.9982 73.3907 32.5677C73.9003 33.1373 74.4998 33.557 75.1893 33.8267C75.8787 34.0666 76.6581 34.1865 77.5275 34.1865C78.8764 34.1865 79.9256 33.8567 80.675 33.1972C81.4544 32.5377 81.8441 31.6384 81.8441 30.4993C81.8441 28.9705 80.9448 27.6965 79.1462 26.6773L76.1785 24.9686C75.0694 24.3391 74.1251 23.7395 73.3457 23.17C72.5963 22.6004 71.9817 22.0309 71.5021 21.4613C71.0225 20.8618 70.6778 20.2472 70.4679 19.6177C70.2581 18.9882 70.1532 18.3137 70.1532 17.5943C70.1532 16.665 70.318 15.8107 70.6478 15.0313C71.0075 14.2519 71.4871 13.5774 72.0867 13.0078C72.7162 12.4383 73.4656 12.0036 74.3349 11.7038C75.2043 11.4041 76.1635 11.2542 77.2127 11.2542C78.4118 11.2542 79.5659 11.464 80.675 11.8837C81.3045 12.1535 81.7842 12.2884 82.1139 12.2884C82.2338 12.2884 82.3238 12.2584 82.3837 12.1984C82.4437 12.1385 82.5936 12.0036 82.8334 11.7938L82.8783 11.7038H83.5078L83.6877 18.7184H82.8783ZM102.436 13.3226H97.2205V28.0712C97.2205 29.7199 97.4303 30.904 97.85 31.6234C98.2696 32.3129 98.9441 32.6576 99.8734 32.6576C100.473 32.6576 100.998 32.5377 101.447 32.2979C101.897 32.0281 102.421 31.5485 103.021 30.859L103.65 31.4885C102.032 34.0366 99.9633 35.3106 97.4453 35.3106C94.4176 35.3106 92.9038 33.1373 92.9038 28.7906V13.3226H90.2059C90.086 13.2926 90.026 13.1877 90.026 13.0078C90.026 12.7081 90.3108 12.3783 90.8804 12.0186C92.2293 11.2392 93.893 9.4106 95.8715 6.53282C96.0214 6.293 96.1863 6.06818 96.3661 5.85834C96.576 5.61852 96.7558 5.36372 96.9057 5.09393C97.0256 5.09393 97.1005 5.1389 97.1305 5.22883C97.1905 5.31876 97.2205 5.49862 97.2205 5.76841V11.7038H102.436V13.3226ZM105.852 14.042C106.601 13.7722 107.291 13.5324 107.92 13.3226C108.55 13.0828 109.149 12.8579 109.719 12.6481C110.319 12.4083 110.903 12.1835 111.473 11.9736C112.072 11.7338 112.717 11.479 113.406 11.2092L113.721 11.2991V16.0205C114.35 15.0912 114.92 14.3268 115.43 13.7273C115.939 13.0977 116.434 12.6031 116.913 12.2434C117.393 11.8537 117.858 11.5839 118.307 11.434C118.787 11.2841 119.297 11.2092 119.836 11.2092C120.706 11.2092 121.395 11.464 121.905 11.9736C122.414 12.4532 122.669 13.0977 122.669 13.9071C122.669 14.6565 122.489 15.2411 122.129 15.6608C121.77 16.0505 121.29 16.2453 120.691 16.2453C120.361 16.2453 120.031 16.1854 119.701 16.0655C119.402 15.9156 119.042 15.6308 118.622 15.2111C118.352 14.9713 118.098 14.7914 117.858 14.6715C117.618 14.5516 117.423 14.4917 117.273 14.4917C116.913 14.4917 116.524 14.6416 116.104 14.9413C115.714 15.2111 115.34 15.5559 114.98 15.9755C114.62 16.3952 114.32 16.8449 114.081 17.3245C113.841 17.8041 113.721 18.2538 113.721 18.6734V30.2295C113.721 30.949 113.781 31.5485 113.901 32.0281C114.021 32.5078 114.246 32.8975 114.575 33.1972C114.905 33.467 115.355 33.6769 115.924 33.8267C116.494 33.9766 117.213 34.0666 118.083 34.0965V34.816H105.717V34.0965C106.526 33.9467 107.171 33.7968 107.651 33.6469C108.16 33.467 108.535 33.2572 108.775 33.0174C109.045 32.7776 109.209 32.4628 109.269 32.0731C109.359 31.6534 109.404 31.1288 109.404 30.4993V17.6842C109.404 16.5451 109.269 15.7507 109 15.301C108.73 14.8214 108.28 14.5816 107.651 14.5816C107.321 14.5816 107.021 14.5966 106.751 14.6266C106.511 14.6565 106.212 14.7165 105.852 14.8064V14.042ZM143.351 29.4201C143.351 30.5593 143.456 31.3537 143.666 31.8033C143.876 32.223 144.281 32.4328 144.88 32.4328C145.57 32.4328 146.319 32.1181 147.128 31.4885V32.7925C146.259 33.7518 145.495 34.4113 144.835 34.771C144.176 35.1307 143.411 35.3106 142.542 35.3106C141.493 35.3106 140.713 35.0258 140.204 34.4563C139.724 33.8567 139.424 32.8675 139.304 31.4885C137.746 32.8375 136.382 33.8118 135.213 34.4113C134.043 35.0108 132.904 35.3106 131.795 35.3106C130.176 35.3106 128.857 34.801 127.838 33.7818C126.849 32.7626 126.354 31.4436 126.354 29.8248C126.354 29.0155 126.504 28.2061 126.804 27.3967C127.134 26.5574 127.598 25.8829 128.198 25.3733C128.738 24.8936 129.232 24.489 129.682 24.1592C130.161 23.7995 130.776 23.4398 131.525 23.08C132.275 22.6903 133.249 22.2557 134.448 21.776C135.647 21.2964 137.236 20.6519 139.214 19.8425V16.5601C139.214 15.1512 138.87 14.087 138.18 13.3675C137.521 12.6481 136.561 12.2884 135.302 12.2884C134.253 12.2884 133.369 12.5432 132.65 13.0528C131.96 13.5324 131.615 14.117 131.615 14.8064C131.615 15.0762 131.645 15.421 131.705 15.8406C131.795 16.2603 131.84 16.605 131.84 16.8748C131.84 17.4744 131.6 17.984 131.121 18.4037C130.671 18.8233 130.146 19.0332 129.547 19.0332C128.947 19.0332 128.423 18.8233 127.973 18.4037C127.553 17.954 127.344 17.4294 127.344 16.8299C127.344 16.1704 127.523 15.4959 127.883 14.8064C128.273 14.117 128.797 13.5024 129.457 12.9629C130.146 12.3633 131.061 11.8987 132.2 11.5689C133.369 11.2392 134.628 11.0743 135.977 11.0743C137.536 11.0743 138.84 11.3441 139.889 11.8837C140.968 12.3933 141.792 13.1127 142.362 14.042C142.722 14.6416 142.977 15.346 143.126 16.1554C143.276 16.9348 143.351 17.999 143.351 19.3479V29.4201ZM139.214 21.1016C137.656 21.6711 136.322 22.2257 135.213 22.7653C134.133 23.2749 133.249 23.8145 132.56 24.384C131.9 24.9236 131.42 25.5082 131.121 26.1377C130.821 26.7672 130.671 27.4567 130.671 28.2061V28.4309C130.671 28.9705 130.761 29.4951 130.941 30.0047C131.121 30.4843 131.36 30.904 131.66 31.2637C131.99 31.6234 132.365 31.9082 132.784 32.1181C133.204 32.3279 133.639 32.4328 134.088 32.4328C134.628 32.4328 135.228 32.3279 135.887 32.1181C136.576 31.8782 137.221 31.5935 137.821 31.2637C138.42 30.934 138.795 30.5892 138.945 30.2295C139.125 29.8698 139.214 29.3002 139.214 28.5208V21.1016Z"/>
</mask>
<path d="M19.2111 0.822229C23.6776 0.822229 27.0351 1.55666 29.2833 3.02553C31.5316 4.49439 32.6557 6.66771 32.6557 9.54549C32.6557 10.5947 32.4759 11.5839 32.1161 12.5132C31.7564 13.4125 31.2468 14.1469 30.5873 14.7165C30.2576 14.9863 29.9428 15.2261 29.643 15.4359C29.3433 15.6458 28.9985 15.8406 28.6088 16.0205C28.2491 16.1704 27.8145 16.3203 27.3048 16.4701C26.8252 16.62 26.2557 16.7849 25.5962 16.9648C26.4355 17.1446 27.155 17.3245 27.7545 17.5043C28.384 17.6842 28.9386 17.894 29.4182 18.1339C29.8978 18.3437 30.3325 18.5835 30.7222 18.8533C31.1119 19.1231 31.5016 19.4379 31.8913 19.7976C33.57 21.2964 34.4094 23.2299 34.4094 25.5981C34.4094 27.037 34.1246 28.326 33.555 29.4651C32.9855 30.6042 32.1611 31.5785 31.0819 32.3879C30.0028 33.1673 28.6988 33.7668 27.1699 34.1865C25.6411 34.6061 23.9175 34.816 21.9989 34.816H4.82221V33.8717C5.8714 33.8417 6.71075 33.7668 7.34026 33.6469C7.99975 33.497 8.50936 33.2572 8.86908 32.9274C9.2288 32.5977 9.46862 32.148 9.58852 31.5785C9.70843 30.9789 9.76839 30.2145 9.76839 29.2852V6.44289C9.76839 5.48363 9.70843 4.71922 9.58852 4.14966C9.49859 3.5801 9.27377 3.13045 8.91405 2.8007C8.55432 2.47096 8.04472 2.24613 7.38523 2.12622C6.75571 2.00631 5.90137 1.91638 4.82221 1.85643V0.822229H19.2111ZM14.9394 30.8141C14.9394 31.6534 15.1642 32.223 15.6139 32.5227C16.0635 32.7925 16.8879 32.9274 18.087 32.9274C18.9863 32.9274 19.7807 32.9124 20.4701 32.8825C21.1896 32.8225 21.8341 32.7476 22.4036 32.6576C23.0032 32.5377 23.5427 32.3879 24.0224 32.208C24.502 32.0281 24.9517 31.8183 25.3713 31.5785C27.4697 30.3794 28.5189 28.4009 28.5189 25.6431C28.5189 22.4056 27.0351 20.2173 24.0673 19.0781C23.5877 18.8983 23.0631 18.7484 22.4936 18.6285C21.954 18.5086 21.3245 18.4186 20.605 18.3587C19.9156 18.2688 19.1062 18.2088 18.1769 18.1788C17.2476 18.1189 16.1684 18.0889 14.9394 18.0889V30.8141ZM19.8856 16.0205C22.3137 16.0205 24.1723 15.4959 25.4613 14.4467C26.7802 13.3675 27.4397 11.8087 27.4397 9.77032C27.4397 7.43212 26.6753 5.67848 25.1465 4.50938C23.6177 3.34028 21.3544 2.75574 18.3568 2.75574H16.1085C15.3291 2.75574 14.9394 3.26534 14.9394 4.28455V16.0205H19.8856ZM52.8433 11.2092C54.4921 11.2092 56.0059 11.494 57.3848 12.0635C58.7638 12.6331 59.9478 13.4425 60.9371 14.4917C61.9563 15.5109 62.7507 16.7249 63.3202 18.1339C63.8898 19.5428 64.1746 21.1016 64.1746 22.8102C64.1746 24.6089 63.8748 26.2726 63.2753 27.8014C62.7057 29.3002 61.9113 30.6192 60.8921 31.7583C59.8729 32.8675 58.6588 33.7368 57.2499 34.3663C55.871 34.9958 54.3721 35.3106 52.7534 35.3106C51.1346 35.3106 49.6358 35.0108 48.2569 34.4113C46.8779 33.8118 45.6938 32.9724 44.7046 31.8932C43.7154 30.8141 42.936 29.5401 42.3664 28.0712C41.7969 26.6023 41.5121 24.9986 41.5121 23.2599C41.5121 21.4913 41.7819 19.8725 42.3215 18.4037C42.891 16.9048 43.6704 15.6308 44.6596 14.5816C45.6489 13.5024 46.833 12.6781 48.2119 12.1085C49.6208 11.509 51.1646 11.2092 52.8433 11.2092ZM52.0789 12.6481C50.2803 12.6481 48.8414 13.3825 47.7622 14.8514C46.6831 16.3203 46.1435 18.2688 46.1435 20.6969C46.1435 22.5255 46.3383 24.3091 46.728 26.0477C47.1177 27.7564 47.6723 29.2852 48.3918 30.6342C48.9313 31.6834 49.6508 32.4928 50.5501 33.0623C51.4494 33.6319 52.4236 33.9167 53.4728 33.9167C55.3614 33.9167 56.8302 33.0923 57.8794 31.4436C58.9586 29.7649 59.4982 27.4717 59.4982 24.5639C59.4982 22.3756 59.1834 20.3372 58.5539 18.4486C57.9244 16.5601 57.0701 15.1362 55.9909 14.1769C55.4213 13.6373 54.8218 13.2476 54.1923 13.0078C53.5628 12.768 52.8583 12.6481 52.0789 12.6481ZM82.8783 18.7184C82.3088 16.4102 81.6043 14.7765 80.765 13.8172C79.9256 12.8579 78.7715 12.3783 77.3026 12.3783C76.1036 12.3783 75.1443 12.7081 74.4249 13.3675C73.7054 13.9971 73.3457 14.8364 73.3457 15.8856C73.3457 17.3545 74.0801 18.5236 75.549 19.3929L81.0797 22.6754C82.6385 23.6046 83.7477 24.5339 84.4072 25.4632C85.0666 26.3625 85.3964 27.4567 85.3964 28.7457C85.3964 29.645 85.2015 30.4993 84.8118 31.3087C84.4221 32.1181 83.8975 32.8225 83.2381 33.4221C82.6085 33.9916 81.8591 34.4563 80.9898 34.816C80.1205 35.1457 79.1912 35.3106 78.2019 35.3106C77.6624 35.3106 77.0778 35.2656 76.4483 35.1757C75.8188 35.1157 75.1293 34.9958 74.3799 34.816C73.7804 34.6661 73.3157 34.5612 72.986 34.5012C72.6562 34.4413 72.3415 34.4113 72.0417 34.4113C71.7419 34.4113 71.5171 34.4563 71.3672 34.5462C71.2173 34.6361 71.0525 34.801 70.8726 35.0408H70.1981V27.037H71.0075C71.3073 28.356 71.652 29.4651 72.0417 30.3644C72.4314 31.2637 72.8811 31.9982 73.3907 32.5677C73.9003 33.1373 74.4998 33.557 75.1893 33.8267C75.8787 34.0666 76.6581 34.1865 77.5275 34.1865C78.8764 34.1865 79.9256 33.8567 80.675 33.1972C81.4544 32.5377 81.8441 31.6384 81.8441 30.4993C81.8441 28.9705 80.9448 27.6965 79.1462 26.6773L76.1785 24.9686C75.0694 24.3391 74.1251 23.7395 73.3457 23.17C72.5963 22.6004 71.9817 22.0309 71.5021 21.4613C71.0225 20.8618 70.6778 20.2472 70.4679 19.6177C70.2581 18.9882 70.1532 18.3137 70.1532 17.5943C70.1532 16.665 70.318 15.8107 70.6478 15.0313C71.0075 14.2519 71.4871 13.5774 72.0867 13.0078C72.7162 12.4383 73.4656 12.0036 74.3349 11.7038C75.2043 11.4041 76.1635 11.2542 77.2127 11.2542C78.4118 11.2542 79.5659 11.464 80.675 11.8837C81.3045 12.1535 81.7842 12.2884 82.1139 12.2884C82.2338 12.2884 82.3238 12.2584 82.3837 12.1984C82.4437 12.1385 82.5936 12.0036 82.8334 11.7938L82.8783 11.7038H83.5078L83.6877 18.7184H82.8783ZM102.436 13.3226H97.2205V28.0712C97.2205 29.7199 97.4303 30.904 97.85 31.6234C98.2696 32.3129 98.9441 32.6576 99.8734 32.6576C100.473 32.6576 100.998 32.5377 101.447 32.2979C101.897 32.0281 102.421 31.5485 103.021 30.859L103.65 31.4885C102.032 34.0366 99.9633 35.3106 97.4453 35.3106C94.4176 35.3106 92.9038 33.1373 92.9038 28.7906V13.3226H90.2059C90.086 13.2926 90.026 13.1877 90.026 13.0078C90.026 12.7081 90.3108 12.3783 90.8804 12.0186C92.2293 11.2392 93.893 9.4106 95.8715 6.53282C96.0214 6.293 96.1863 6.06818 96.3661 5.85834C96.576 5.61852 96.7558 5.36372 96.9057 5.09393C97.0256 5.09393 97.1005 5.1389 97.1305 5.22883C97.1905 5.31876 97.2205 5.49862 97.2205 5.76841V11.7038H102.436V13.3226ZM105.852 14.042C106.601 13.7722 107.291 13.5324 107.92 13.3226C108.55 13.0828 109.149 12.8579 109.719 12.6481C110.319 12.4083 110.903 12.1835 111.473 11.9736C112.072 11.7338 112.717 11.479 113.406 11.2092L113.721 11.2991V16.0205C114.35 15.0912 114.92 14.3268 115.43 13.7273C115.939 13.0977 116.434 12.6031 116.913 12.2434C117.393 11.8537 117.858 11.5839 118.307 11.434C118.787 11.2841 119.297 11.2092 119.836 11.2092C120.706 11.2092 121.395 11.464 121.905 11.9736C122.414 12.4532 122.669 13.0977 122.669 13.9071C122.669 14.6565 122.489 15.2411 122.129 15.6608C121.77 16.0505 121.29 16.2453 120.691 16.2453C120.361 16.2453 120.031 16.1854 119.701 16.0655C119.402 15.9156 119.042 15.6308 118.622 15.2111C118.352 14.9713 118.098 14.7914 117.858 14.6715C117.618 14.5516 117.423 14.4917 117.273 14.4917C116.913 14.4917 116.524 14.6416 116.104 14.9413C115.714 15.2111 115.34 15.5559 114.98 15.9755C114.62 16.3952 114.32 16.8449 114.081 17.3245C113.841 17.8041 113.721 18.2538 113.721 18.6734V30.2295C113.721 30.949 113.781 31.5485 113.901 32.0281C114.021 32.5078 114.246 32.8975 114.575 33.1972C114.905 33.467 115.355 33.6769 115.924 33.8267C116.494 33.9766 117.213 34.0666 118.083 34.0965V34.816H105.717V34.0965C106.526 33.9467 107.171 33.7968 107.651 33.6469C108.16 33.467 108.535 33.2572 108.775 33.0174C109.045 32.7776 109.209 32.4628 109.269 32.0731C109.359 31.6534 109.404 31.1288 109.404 30.4993V17.6842C109.404 16.5451 109.269 15.7507 109 15.301C108.73 14.8214 108.28 14.5816 107.651 14.5816C107.321 14.5816 107.021 14.5966 106.751 14.6266C106.511 14.6565 106.212 14.7165 105.852 14.8064V14.042ZM143.351 29.4201C143.351 30.5593 143.456 31.3537 143.666 31.8033C143.876 32.223 144.281 32.4328 144.88 32.4328C145.57 32.4328 146.319 32.1181 147.128 31.4885V32.7925C146.259 33.7518 145.495 34.4113 144.835 34.771C144.176 35.1307 143.411 35.3106 142.542 35.3106C141.493 35.3106 140.713 35.0258 140.204 34.4563C139.724 33.8567 139.424 32.8675 139.304 31.4885C137.746 32.8375 136.382 33.8118 135.213 34.4113C134.043 35.0108 132.904 35.3106 131.795 35.3106C130.176 35.3106 128.857 34.801 127.838 33.7818C126.849 32.7626 126.354 31.4436 126.354 29.8248C126.354 29.0155 126.504 28.2061 126.804 27.3967C127.134 26.5574 127.598 25.8829 128.198 25.3733C128.738 24.8936 129.232 24.489 129.682 24.1592C130.161 23.7995 130.776 23.4398 131.525 23.08C132.275 22.6903 133.249 22.2557 134.448 21.776C135.647 21.2964 137.236 20.6519 139.214 19.8425V16.5601C139.214 15.1512 138.87 14.087 138.18 13.3675C137.521 12.6481 136.561 12.2884 135.302 12.2884C134.253 12.2884 133.369 12.5432 132.65 13.0528C131.96 13.5324 131.615 14.117 131.615 14.8064C131.615 15.0762 131.645 15.421 131.705 15.8406C131.795 16.2603 131.84 16.605 131.84 16.8748C131.84 17.4744 131.6 17.984 131.121 18.4037C130.671 18.8233 130.146 19.0332 129.547 19.0332C128.947 19.0332 128.423 18.8233 127.973 18.4037C127.553 17.954 127.344 17.4294 127.344 16.8299C127.344 16.1704 127.523 15.4959 127.883 14.8064C128.273 14.117 128.797 13.5024 129.457 12.9629C130.146 12.3633 131.061 11.8987 132.2 11.5689C133.369 11.2392 134.628 11.0743 135.977 11.0743C137.536 11.0743 138.84 11.3441 139.889 11.8837C140.968 12.3933 141.792 13.1127 142.362 14.042C142.722 14.6416 142.977 15.346 143.126 16.1554C143.276 16.9348 143.351 17.999 143.351 19.3479V29.4201ZM139.214 21.1016C137.656 21.6711 136.322 22.2257 135.213 22.7653C134.133 23.2749 133.249 23.8145 132.56 24.384C131.9 24.9236 131.42 25.5082 131.121 26.1377C130.821 26.7672 130.671 27.4567 130.671 28.2061V28.4309C130.671 28.9705 130.761 29.4951 130.941 30.0047C131.121 30.4843 131.36 30.904 131.66 31.2637C131.99 31.6234 132.365 31.9082 132.784 32.1181C133.204 32.3279 133.639 32.4328 134.088 32.4328C134.628 32.4328 135.228 32.3279 135.887 32.1181C136.576 31.8782 137.221 31.5935 137.821 31.2637C138.42 30.934 138.795 30.5892 138.945 30.2295C139.125 29.8698 139.214 29.3002 139.214 28.5208V21.1016Z" fill="#1B7660"/>
<path d="M32.1161 12.5132L32.8796 12.8186L32.8829 12.81L32.1161 12.5132ZM30.5873 14.7165L31.108 15.3529L31.1164 15.3459L31.1247 15.3388L30.5873 14.7165ZM28.6088 16.0205L28.9251 16.7795L28.9394 16.7735L28.9534 16.767L28.6088 16.0205ZM27.3048 16.4701L27.0728 15.6812L27.0596 15.6853L27.3048 16.4701ZM25.5962 16.9648L25.3798 16.1715L25.4239 17.7687L25.5962 16.9648ZM27.7545 17.5043L27.5182 18.292L27.5286 18.2949L27.7545 17.5043ZM29.4182 18.1339L29.0505 18.8693L29.0693 18.8787L29.0886 18.8871L29.4182 18.1339ZM31.8913 19.7976L31.3335 20.4018L31.3437 20.4109L31.8913 19.7976ZM31.0819 32.3879L31.5633 33.0544L31.5693 33.0501L31.5753 33.0456L31.0819 32.3879ZM4.82221 34.816H3.99998V35.6382H4.82221V34.816ZM4.82221 33.8717L4.79872 33.0498L3.99998 33.0726V33.8717H4.82221ZM7.34026 33.6469L7.49411 34.4546L7.50835 34.4519L7.52248 34.4487L7.34026 33.6469ZM9.58852 31.5785L10.3932 31.7479L10.3948 31.7397L9.58852 31.5785ZM9.58852 4.14966L8.77636 4.27789L8.77963 4.29857L8.78394 4.31905L9.58852 4.14966ZM7.38523 2.12622L7.23137 2.93395L7.23814 2.93518L7.38523 2.12622ZM4.82221 1.85643H3.99998V2.63424L4.7766 2.67739L4.82221 1.85643ZM4.82221 0.822227V7.62939e-06H3.99998V0.822227H4.82221ZM15.6139 32.5228L15.1578 33.2069L15.1741 33.2177L15.1908 33.2278L15.6139 32.5228ZM20.4701 32.8825L20.5058 33.7039L20.5221 33.7032L20.5384 33.7019L20.4701 32.8825ZM22.4036 32.6576L22.5319 33.4698L22.5484 33.4672L22.5649 33.4639L22.4036 32.6576ZM24.0673 19.0781L24.362 18.3105L24.356 18.3083L24.0673 19.0781ZM22.4936 18.6285L22.3152 19.4312L22.3242 19.4331L22.4936 18.6285ZM20.605 18.3587L20.4987 19.174L20.5177 19.1765L20.5367 19.1781L20.605 18.3587ZM18.1769 18.1788L18.124 18.9993L18.1372 19.0002L18.1504 19.0006L18.1769 18.1788ZM14.9394 18.0889V17.2667H14.1172V18.0889H14.9394ZM25.4613 14.4467L25.9803 15.0844L25.9819 15.0831L25.4613 14.4467ZM14.9394 16.0205H14.1172V16.8427H14.9394V16.0205ZM19.2111 0.822227V1.64445C23.613 1.64445 26.7811 2.37286 28.8336 3.71386L29.2833 3.02553L29.733 2.33719C27.2891 0.740459 23.7423 7.62939e-06 19.2111 7.62939e-06V0.822227ZM29.2833 3.02553L28.8336 3.71386C30.8303 5.01836 31.8335 6.92163 31.8335 9.54549H32.6557H33.4779C33.4779 6.4138 32.2329 3.97042 29.733 2.33719L29.2833 3.02553ZM32.6557 9.54549H31.8335C31.8335 10.4986 31.6705 11.3867 31.3494 12.2164L32.1161 12.5132L32.8829 12.81C33.2812 11.7811 33.4779 10.6908 33.4779 9.54549H32.6557ZM32.1161 12.5132L31.3527 12.2078C31.0363 12.9988 30.5991 13.6199 30.0499 14.0942L30.5873 14.7165L31.1247 15.3388C31.8945 14.674 32.4765 13.8262 32.8795 12.8186L32.1161 12.5132ZM30.5873 14.7165L30.0666 14.0801C29.7503 14.339 29.452 14.566 29.1715 14.7624L29.643 15.4359L30.1146 16.1095C30.4336 15.8862 30.7648 15.6336 31.108 15.3529L30.5873 14.7165ZM29.643 15.4359L29.1715 14.7624C28.918 14.9398 28.617 15.1112 28.2643 15.2739L28.6088 16.0205L28.9534 16.767C29.3801 16.5701 29.7686 16.3517 30.1146 16.1095L29.643 15.4359ZM28.6088 16.0205L28.2926 15.2615C27.9682 15.3967 27.5633 15.5371 27.0728 15.6813L27.3048 16.4701L27.5368 17.259C28.0656 17.1035 28.53 16.9441 28.9251 16.7795L28.6088 16.0205ZM27.3048 16.4701L27.0596 15.6853C26.5923 15.8314 26.0328 15.9934 25.3798 16.1715L25.5962 16.9648L25.8125 17.758C26.4785 17.5764 27.0582 17.4087 27.5501 17.2549L27.3048 16.4701ZM25.5962 16.9648L25.4239 17.7687C26.249 17.9455 26.9459 18.1202 27.5182 18.2919L27.7545 17.5043L27.9908 16.7168C27.364 16.5288 26.6221 16.3437 25.7684 16.1608L25.5962 16.9648ZM27.7545 17.5043L27.5286 18.2949C28.1195 18.4638 28.625 18.6565 29.0505 18.8693L29.4182 18.1339L29.7859 17.3984C29.2522 17.1316 28.6485 16.9047 27.9804 16.7138L27.7545 17.5043ZM29.4182 18.1339L29.0886 18.8871C29.5247 19.0779 29.9123 19.2926 30.2542 19.5293L30.7222 18.8533L31.1902 18.1773C30.7527 17.8744 30.271 17.6095 29.7478 17.3806L29.4182 18.1339ZM30.7222 18.8533L30.2542 19.5293C30.6089 19.7749 30.9688 20.065 31.3336 20.4017L31.8913 19.7976L32.449 19.1934C32.0344 18.8107 31.6149 18.4713 31.1902 18.1773L30.7222 18.8533ZM31.8913 19.7976L31.3437 20.4109C32.8376 21.7447 33.5871 23.4503 33.5871 25.5981H34.4094H35.2316C35.2316 23.0096 34.3024 20.8481 32.4389 19.1842L31.8913 19.7976ZM34.4094 25.5981H33.5871C33.5871 26.926 33.325 28.0865 32.8196 29.0974L33.555 29.4651L34.2904 29.8328C34.9241 28.5655 35.2316 27.1479 35.2316 25.5981H34.4094ZM33.555 29.4651L32.8196 29.0974C32.3105 30.1156 31.5718 30.9926 30.5886 31.7301L31.0819 32.3879L31.5753 33.0456C32.7503 32.1643 33.6604 31.0928 34.2904 29.8328L33.555 29.4651ZM31.0819 32.3879L30.6005 31.7213C29.6146 32.4333 28.404 32.9951 26.9523 33.3936L27.1699 34.1865L27.3876 34.9794C28.9935 34.5385 30.3909 33.9012 31.5633 33.0544L31.0819 32.3879ZM27.1699 34.1865L26.9523 33.3936C25.5074 33.7902 23.8588 33.9938 21.9989 33.9938V34.816V35.6382C23.9762 35.6382 25.7749 35.4221 27.3876 34.9794L27.1699 34.1865ZM21.9989 34.816V33.9938H4.82221V34.816V35.6382H21.9989V34.816ZM4.82221 34.816H5.64443V33.8717H4.82221H3.99998V34.816H4.82221ZM4.82221 33.8717L4.84569 34.6936C5.91481 34.663 6.80322 34.5862 7.49411 34.4546L7.34026 33.6469L7.18641 32.8392C6.61828 32.9474 5.82798 33.0204 4.79872 33.0498L4.82221 33.8717ZM7.34026 33.6469L7.52248 34.4487C8.27009 34.2787 8.92668 33.99 9.42468 33.5335L8.86908 32.9274L8.31348 32.3213C8.09204 32.5243 7.72941 32.7152 7.15804 32.8451L7.34026 33.6469ZM8.86908 32.9274L9.42468 33.5335C9.93385 33.0668 10.2448 32.4522 10.3931 31.7479L9.58852 31.5785L8.78394 31.4091C8.69241 31.8438 8.52376 32.1286 8.31348 32.3213L8.86908 32.9274ZM9.58852 31.5785L10.3948 31.7397C10.5293 31.0673 10.5906 30.2439 10.5906 29.2852H9.76839H8.94616C8.94616 30.1852 8.8876 30.8906 8.78227 31.4172L9.58852 31.5785ZM9.76839 29.2852H10.5906V6.44289H9.76839H8.94616V29.2852H9.76839ZM9.76839 6.44289H10.5906C10.5906 5.45822 10.5298 4.62965 10.3931 3.98027L9.58852 4.14966L8.78394 4.31905C8.88704 4.80879 8.94616 5.50904 8.94616 6.44289H9.76839ZM9.58852 4.14966L10.4007 4.02142C10.2872 3.30288 9.99033 2.67189 9.46964 2.1946L8.91405 2.8007L8.35845 3.40681C8.55721 3.589 8.70996 3.85732 8.77636 4.27789L9.58852 4.14966ZM8.91405 2.8007L9.46964 2.1946C8.96042 1.72781 8.28941 1.45492 7.53231 1.31726L7.38523 2.12622L7.23814 2.93518C7.80003 3.03734 8.14822 3.2141 8.35845 3.40681L8.91405 2.8007ZM7.38523 2.12622L7.53907 1.31852C6.85783 1.18876 5.9623 1.09628 4.86781 1.03547L4.82221 1.85643L4.7766 2.67739C5.84044 2.73649 6.6536 2.82387 7.23138 2.93392L7.38523 2.12622ZM4.82221 1.85643H5.64443V0.822227H4.82221H3.99998V1.85643H4.82221ZM4.82221 0.822227V1.64445H19.2111V0.822227V7.62939e-06H4.82221V0.822227ZM14.9394 30.8141H14.1172C14.1172 31.7697 14.3731 32.6838 15.1578 33.2069L15.6139 32.5228L16.07 31.8386C15.9553 31.7622 15.7616 31.5372 15.7616 30.8141H14.9394ZM15.6139 32.5228L15.1908 33.2278C15.5419 33.4384 15.9755 33.5622 16.4366 33.6377C16.907 33.7147 17.4604 33.7497 18.087 33.7497V32.9274V32.1052C17.5145 32.1052 17.0561 32.0728 16.7022 32.0148C16.3389 31.9554 16.1355 31.8769 16.0369 31.8177L15.6139 32.5228ZM18.087 32.9274V33.7497C18.9948 33.7497 19.8015 33.7345 20.5058 33.7039L20.4701 32.8825L20.4344 32.061C19.7598 32.0904 18.9777 32.1052 18.087 32.1052V32.9274ZM20.4701 32.8825L20.5384 33.7019C21.2732 33.6406 21.9382 33.5635 22.5319 33.4698L22.4036 32.6576L22.2754 31.8455C21.7299 31.9316 21.106 32.0044 20.4018 32.0631L20.4701 32.8825ZM22.4036 32.6576L22.5649 33.4639C23.1998 33.3369 23.783 33.1759 24.3111 32.9779L24.0224 32.208L23.7337 31.4381C23.3025 31.5998 22.8066 31.7386 22.2424 31.8514L22.4036 32.6576ZM24.0224 32.208L24.3111 32.9779C24.8295 32.7835 25.3192 32.5553 25.7793 32.2924L25.3713 31.5785L24.9634 30.8646C24.5841 31.0813 24.1746 31.2728 23.7337 31.4381L24.0224 32.208ZM25.3713 31.5785L25.7793 32.2924C28.1745 30.9237 29.3411 28.646 29.3411 25.6431H28.5189H27.6967C27.6967 28.1559 26.7649 29.8352 24.9634 30.8646L25.3713 31.5785ZM28.5189 25.6431H29.3411C29.3411 23.8971 28.9397 22.3705 28.0865 21.1123C27.2326 19.8528 25.9704 18.9279 24.362 18.3105L24.0673 19.0781L23.7727 19.8457C25.132 20.3675 26.0956 21.1063 26.7255 22.0352C27.3562 22.9652 27.6967 24.1515 27.6967 25.6431H28.5189ZM24.0673 19.0781L24.356 18.3083C23.8328 18.112 23.2677 17.9512 22.6629 17.8239L22.4936 18.6285L22.3242 19.4331C22.8585 19.5456 23.3427 19.6845 23.7786 19.848L24.0673 19.0781ZM22.4936 18.6285L22.6719 17.8258C22.087 17.6959 21.4193 17.6015 20.6733 17.5393L20.605 18.3587L20.5367 19.1781C21.2297 19.2358 21.8209 19.3213 22.3152 19.4311L22.4936 18.6285ZM20.605 18.3587L20.7114 17.5434C19.9883 17.4491 19.1511 17.3876 18.2034 17.357L18.1769 18.1788L18.1504 19.0006C19.0612 19.03 19.8428 19.0885 20.4987 19.174L20.605 18.3587ZM18.1769 18.1788L18.2298 17.3583C17.2784 17.2969 16.1809 17.2667 14.9394 17.2667V18.0889V18.9111C16.156 18.9111 17.2168 18.9408 18.124 18.9993L18.1769 18.1788ZM14.9394 18.0889H14.1172V30.8141H14.9394H15.7616V18.0889H14.9394ZM19.8856 16.0205V16.8427C22.4182 16.8427 24.4903 16.2972 25.9803 15.0844L25.4613 14.4467L24.9422 13.809C23.8542 14.6946 22.2092 15.1983 19.8856 15.1983V16.0205ZM25.4613 14.4467L25.9819 15.0831C27.5297 13.8167 28.262 12.0018 28.262 9.77032H27.4397H26.6175C26.6175 11.6157 26.0308 12.9184 24.9406 13.8103L25.4613 14.4467ZM27.4397 9.77032H28.262C28.262 7.23743 27.4225 5.21476 25.646 3.85624L25.1465 4.50938L24.6471 5.16252C25.9282 6.1422 26.6175 7.62682 26.6175 9.77032H27.4397ZM25.1465 4.50938L25.646 3.85624C23.9134 2.53136 21.4405 1.93351 18.3568 1.93351V2.75574V3.57796C21.2684 3.57796 23.3219 4.1492 24.6471 5.16252L25.1465 4.50938ZM18.3568 2.75574V1.93351H16.1085V2.75574V3.57796H18.3568V2.75574ZM16.1085 2.75574V1.93351C15.5241 1.93351 14.9628 2.13598 14.5785 2.63848C14.2262 3.09925 14.1172 3.69335 14.1172 4.28456H14.9394H15.7616C15.7616 3.85655 15.8475 3.68623 15.8848 3.6374C15.8979 3.62024 15.9083 3.61255 15.9256 3.60501C15.9477 3.59535 16.0022 3.57796 16.1085 3.57796V2.75574ZM14.9394 4.28456H14.1172V16.0205H14.9394H15.7616V4.28456H14.9394ZM14.9394 16.0205V16.8427H19.8856V16.0205V15.1983H14.9394V16.0205ZM60.9371 14.4917L60.3388 15.0557L60.3471 15.0645L60.3557 15.0731L60.9371 14.4917ZM63.2753 27.8014L62.5098 27.5012L62.5067 27.5093L63.2753 27.8014ZM60.8921 31.7583L61.4976 32.3147L61.5049 32.3066L60.8921 31.7583ZM57.2499 34.3663L56.9145 33.6156L56.9085 33.6184L57.2499 34.3663ZM42.3214 18.4037L41.5528 18.1116L41.5497 18.1201L42.3214 18.4037ZM44.6596 14.5816L45.2579 15.1457L45.2658 15.1372L44.6596 14.5816ZM48.2119 12.1085L48.5258 12.8685L48.5338 12.8651L48.2119 12.1085ZM46.728 26.0477L45.9257 26.2276L45.9264 26.2306L46.728 26.0477ZM48.3918 30.6342L49.123 30.2581L49.1173 30.2473L48.3918 30.6342ZM57.8794 31.4436L57.1878 30.999L57.1858 31.0022L57.8794 31.4436ZM55.9909 14.1769L55.4254 14.7738L55.4349 14.7828L55.4446 14.7915L55.9909 14.1769ZM52.8433 11.2092V12.0314C54.3957 12.0314 55.8015 12.2992 57.0709 12.8235L57.3848 12.0635L57.6987 11.3036C56.2103 10.6888 54.5884 10.387 52.8433 10.387V11.2092ZM57.3848 12.0635L57.0709 12.8235C58.3461 13.3502 59.4322 14.0942 60.3388 15.0557L60.9371 14.4917L61.5353 13.9276C60.4634 12.7908 59.1814 11.916 57.6987 11.3036L57.3848 12.0635ZM60.9371 14.4917L60.3557 15.0731C61.2927 16.0101 62.0275 17.1298 62.5579 18.442L63.3202 18.1339L64.0825 17.8257C63.4739 16.3201 62.6199 15.0117 61.5185 13.9103L60.9371 14.4917ZM63.3202 18.1339L62.5579 18.442C63.0833 19.7416 63.3524 21.1941 63.3524 22.8102H64.1746H64.9968C64.9968 21.009 64.6963 19.344 64.0825 17.8257L63.3202 18.1339ZM64.1746 22.8102H63.3524C63.3524 24.5159 63.0684 26.0768 62.5098 27.5012L63.2753 27.8014L64.0407 28.1016C64.6812 26.4684 64.9968 24.7018 64.9968 22.8102H64.1746ZM63.2753 27.8014L62.5067 27.5093C61.9711 28.9186 61.2281 30.1497 60.2794 31.2101L60.8921 31.7583L61.5049 32.3066C62.5945 31.0887 63.4403 29.6819 64.0439 28.0935L63.2753 27.8014ZM60.8921 31.7583L60.2867 31.202C59.3452 32.2266 58.2237 33.0307 56.9145 33.6156L57.2499 34.3663L57.5853 35.117C59.094 34.4429 60.4006 33.5084 61.4975 32.3147L60.8921 31.7583ZM57.2499 34.3663L56.9085 33.6184C55.6439 34.1957 54.2625 34.4884 52.7534 34.4884V35.3106V36.1328C54.4818 36.1328 56.0981 35.796 57.5914 35.1143L57.2499 34.3663ZM52.7534 35.3106V34.4884C51.2387 34.4884 49.8525 34.2085 48.5847 33.6573L48.2569 34.4113L47.929 35.1653C49.4191 35.8132 51.0306 36.1328 52.7534 36.1328V35.3106ZM48.2569 34.4113L48.5847 33.6573C47.3085 33.1024 46.22 32.3296 45.3107 31.3376L44.7046 31.8932L44.0985 32.4488C45.1677 33.6152 46.4474 34.5211 47.929 35.1653L48.2569 34.4113ZM44.7046 31.8932L45.3107 31.3376C44.3957 30.3394 43.6684 29.1548 43.133 27.7739L42.3664 28.0712L41.5998 28.3684C42.2035 29.9253 43.0351 31.2887 44.0985 32.4488L44.7046 31.8932ZM42.3664 28.0712L43.133 27.7739C42.6038 26.4092 42.3343 24.9074 42.3343 23.2599H41.5121H40.6899C40.6899 25.0897 40.9899 26.7954 41.5998 28.3684L42.3664 28.0712ZM41.5121 23.2599H42.3343C42.3343 21.5755 42.5911 20.0542 43.0932 18.6872L42.3214 18.4037L41.5497 18.1201C40.9727 19.6908 40.6899 21.407 40.6899 23.2599H41.5121ZM42.3214 18.4037L43.09 18.6957C43.6255 17.2865 44.3506 16.1079 45.2579 15.1457L44.6596 14.5816L44.0614 14.0175C42.9902 15.1537 42.1565 16.5231 41.5528 18.1116L42.3214 18.4037ZM44.6596 14.5816L45.2658 15.1372C46.1721 14.1484 47.2558 13.393 48.5258 12.8685L48.2119 12.1085L47.898 11.3486C46.4101 11.9631 45.1256 12.8564 44.0535 14.026L44.6596 14.5816ZM48.2119 12.1085L48.5338 12.8651C49.8315 12.3129 51.2645 12.0314 52.8433 12.0314V11.2092V10.387C51.0647 10.387 49.4101 10.7051 47.89 11.3519L48.2119 12.1085ZM52.0789 12.6481V11.8259C50.0145 11.8259 48.3313 12.6882 47.0996 14.3646L47.7622 14.8514L48.4249 15.3382C49.3516 14.0769 50.5461 13.4703 52.0789 13.4703V12.6481ZM47.7622 14.8514L47.0996 14.3646C45.8872 16.0149 45.3213 18.1513 45.3213 20.6969H46.1435H46.9657C46.9657 18.3862 47.479 16.6257 48.4249 15.3382L47.7622 14.8514ZM46.1435 20.6969H45.3213C45.3213 22.5844 45.5225 24.4284 45.9257 26.2276L46.728 26.0477L47.5304 25.8679C47.1542 24.1898 46.9657 22.4666 46.9657 20.6969H46.1435ZM46.728 26.0477L45.9264 26.2306C46.33 28.0002 46.9079 29.5992 47.6663 31.0211L48.3918 30.6342L49.1173 30.2473C48.4367 28.9713 47.9055 27.5127 47.5297 25.8649L46.728 26.0477ZM48.3918 30.6342L47.6606 31.0103C48.2597 32.1752 49.0741 33.1008 50.1102 33.757L50.5501 33.0623L50.99 32.3677C50.2275 31.8848 49.603 31.1916 49.123 30.2582L48.3918 30.6342ZM50.5501 33.0623L50.1102 33.757C51.139 34.4086 52.2655 34.7389 53.4728 34.7389V33.9167V33.0945C52.5818 33.0945 51.7598 32.8552 50.99 32.3677L50.5501 33.0623ZM53.4728 33.9167V34.7389C55.6541 34.7389 57.3794 33.7609 58.5731 31.885L57.8794 31.4436L57.1858 31.0022C56.2811 32.4237 55.0686 33.0945 53.4728 33.0945V33.9167ZM57.8794 31.4436L58.5711 31.8882C59.7661 30.0293 60.3204 27.5612 60.3204 24.5639H59.4982H58.676C58.676 27.3821 58.1511 29.5004 57.1878 30.999L57.8794 31.4436ZM59.4982 24.5639H60.3204C60.3204 22.2959 59.994 20.1689 59.3339 18.1886L58.5539 18.4486L57.7739 18.7086C58.3728 20.5054 58.676 22.4552 58.676 24.5639H59.4982ZM58.5539 18.4486L59.3339 18.1886C58.6754 16.2129 57.7571 14.6468 56.5371 13.5624L55.9909 14.1769L55.4446 14.7915C56.383 15.6255 57.1734 16.9073 57.7739 18.7086L58.5539 18.4486ZM55.9909 14.1769L56.5564 13.58C55.9209 12.978 55.2311 12.5237 54.485 12.2395L54.1923 13.0078L53.8996 13.7762C54.4125 13.9716 54.9218 14.2967 55.4254 14.7738L55.9909 14.1769ZM54.1923 13.0078L54.485 12.2395C53.7486 11.9589 52.9429 11.8259 52.0789 11.8259V12.6481V13.4703C52.7738 13.4703 53.377 13.5771 53.8996 13.7762L54.1923 13.0078ZM82.8783 18.7184L82.0801 18.9154L82.2343 19.5406H82.8783V18.7184ZM74.4249 13.3675L74.9663 13.9863L74.9734 13.9801L74.9805 13.9736L74.4249 13.3675ZM75.549 19.3929L75.9686 18.6858L75.9678 18.6853L75.549 19.3929ZM81.0797 22.6754L81.5008 21.9691L81.4994 21.9683L81.0797 22.6754ZM84.4072 25.4632L83.7365 25.9391L83.7441 25.9494L84.4072 25.4632ZM83.2381 33.4221L83.7897 34.0318L83.7911 34.0304L83.2381 33.4221ZM80.9898 34.816L81.2814 35.5848L81.2928 35.5804L81.3042 35.5757L80.9898 34.816ZM76.4483 35.1757L76.5646 34.3617L76.5455 34.359L76.5263 34.3572L76.4483 35.1757ZM74.3799 34.816L74.1805 35.6137L74.188 35.6155L74.3799 34.816ZM70.8726 35.0408V35.863H71.2837L71.5304 35.5341L70.8726 35.0408ZM70.1981 35.0408H69.3759V35.863H70.1981V35.0408ZM70.1981 27.037V26.2148H69.3759V27.037H70.1981ZM71.0075 27.037L71.8093 26.8548L71.6638 26.2148H71.0075V27.037ZM75.1893 33.8267L74.8897 34.5924L74.9043 34.5982L74.9192 34.6033L75.1893 33.8267ZM80.675 33.1972L80.1439 32.5696L80.1378 32.5747L80.1319 32.58L80.675 33.1972ZM79.1462 26.6773L78.7359 27.3898L78.7409 27.3926L79.1462 26.6773ZM76.1785 24.9686L76.5888 24.256L76.5844 24.2535L76.1785 24.9686ZM73.3457 23.17L72.8482 23.8246L72.8543 23.8293L72.8606 23.8338L73.3457 23.17ZM71.5021 21.4613L70.8601 21.9749L70.8665 21.983L70.8732 21.9909L71.5021 21.4613ZM70.6478 15.0313L69.9012 14.6867L69.8957 14.6987L69.8905 14.7109L70.6478 15.0313ZM72.0867 13.0078L71.535 12.3981L71.5276 12.4048L71.5204 12.4117L72.0867 13.0078ZM80.675 11.8837L80.9989 11.1279L80.9826 11.121L80.966 11.1147L80.675 11.8837ZM82.8334 11.7938L83.3748 12.4125L83.4965 12.3061L83.5688 12.1615L82.8334 11.7938ZM82.8783 11.7038V10.8816H82.3702L82.1429 11.3361L82.8783 11.7038ZM83.5079 11.7038L84.3298 11.6828L84.3093 10.8816H83.5079V11.7038ZM83.6877 18.7184V19.5406H84.5313L84.5097 18.6973L83.6877 18.7184ZM82.8783 18.7184L83.6766 18.5214C83.0984 16.178 82.3558 14.3866 81.3838 13.2758L80.765 13.8172L80.1462 14.3586C80.8529 15.1663 81.5192 16.6424 82.0801 18.9154L82.8783 18.7184ZM80.765 13.8172L81.3838 13.2758C80.3637 12.11 78.9686 11.5561 77.3026 11.5561V12.3783V13.2005C78.5744 13.2005 79.4875 13.6059 80.1462 14.3586L80.765 13.8172ZM77.3026 12.3783V11.5561C75.9472 11.5561 74.7731 11.9329 73.8693 12.7614L74.4249 13.3675L74.9805 13.9736C75.5155 13.4832 76.26 13.2005 77.3026 13.2005V12.3783ZM74.4249 13.3675L73.8834 12.7488C72.9669 13.5507 72.5235 14.6253 72.5235 15.8856H73.3457H74.1679C74.1679 15.0475 74.444 14.4434 74.9663 13.9863L74.4249 13.3675ZM73.3457 15.8856H72.5235C72.5235 17.6969 73.4594 19.1116 75.1302 20.1005L75.549 19.3929L75.9678 18.6853C74.7009 17.9355 74.1679 17.012 74.1679 15.8856H73.3457ZM75.549 19.3929L75.1293 20.1L80.6601 23.3824L81.0797 22.6754L81.4994 21.9683L75.9686 18.6858L75.549 19.3929ZM81.0797 22.6754L80.6587 23.3816C82.1709 24.2831 83.171 25.1421 83.7366 25.9391L84.4072 25.4632L85.0777 24.9873C84.3243 23.9257 83.1062 22.9262 81.5008 21.9691L81.0797 22.6754ZM84.4072 25.4632L83.7441 25.9494C84.2846 26.6865 84.5742 27.6033 84.5742 28.7457H85.3964H86.2186C86.2186 27.3101 85.8487 26.0385 85.0702 24.977L84.4072 25.4632ZM85.3964 28.7457H84.5742C84.5742 29.5216 84.4071 30.254 84.071 30.952L84.8118 31.3087L85.5527 31.6654C85.996 30.7446 86.2186 29.7683 86.2186 28.7457H85.3964ZM84.8118 31.3087L84.071 30.952C83.7268 31.667 83.2657 32.2858 82.685 32.8137L83.2381 33.4221L83.7911 34.0304C84.5294 33.3593 85.1175 32.5692 85.5527 31.6654L84.8118 31.3087ZM83.2381 33.4221L82.6864 32.8123C82.134 33.3122 81.467 33.7287 80.6754 34.0562L80.9898 34.816L81.3042 35.5757C82.2512 35.1838 83.0831 34.671 83.7897 34.0318L83.2381 33.4221ZM80.9898 34.816L80.6982 34.0472C79.9278 34.3394 79.098 34.4884 78.2019 34.4884V35.3106V36.1328C79.2844 36.1328 80.3131 35.952 81.2814 35.5848L80.9898 34.816ZM78.2019 35.3106V34.4884C77.7074 34.4884 77.1622 34.4471 76.5646 34.3617L76.4483 35.1757L76.332 35.9897C76.9935 36.0842 77.6173 36.1328 78.2019 36.1328V35.3106ZM76.4483 35.1757L76.5263 34.3572C75.9423 34.3016 75.2915 34.1892 74.5718 34.0165L74.3799 34.816L74.188 35.6155C74.9671 35.8025 75.6952 35.9299 76.3703 35.9942L76.4483 35.1757ZM74.3799 34.816L74.5793 34.0183C73.9743 33.867 73.4893 33.757 73.1331 33.6923L72.986 34.5012L72.8389 35.3102C73.1422 35.3653 73.5864 35.4651 74.1805 35.6137L74.3799 34.816ZM72.986 34.5012L73.1331 33.6923C72.7604 33.6245 72.3962 33.5891 72.0417 33.5891V34.4113V35.2335C72.2868 35.2335 72.5521 35.258 72.8389 35.3102L72.986 34.5012ZM72.0417 34.4113V33.5891C71.6866 33.5891 71.2835 33.6376 70.9442 33.8411L71.3672 34.5462L71.7903 35.2512C71.7636 35.2672 71.7623 35.2607 71.8095 35.2513C71.8555 35.2421 71.9305 35.2335 72.0417 35.2335V34.4113ZM71.3672 34.5462L70.9442 33.8411C70.6602 34.0115 70.4194 34.2747 70.2148 34.5475L70.8726 35.0408L71.5304 35.5341C71.6032 35.4371 71.6641 35.3671 71.7126 35.3187C71.7364 35.2948 71.7554 35.2781 71.7693 35.2668C71.7834 35.2554 71.7904 35.2512 71.7903 35.2512L71.3672 34.5462ZM70.8726 35.0408V34.2186H70.1981V35.0408V35.863H70.8726V35.0408ZM70.1981 35.0408H71.0203V27.037H70.1981H69.3759V35.0408H70.1981ZM70.1981 27.037V27.8592H71.0075V27.037V26.2148H70.1981V27.037ZM71.0075 27.037L70.2057 27.2192C70.5129 28.5706 70.8714 29.7316 71.2873 30.6913L72.0417 30.3644L72.7961 30.0375C72.4326 29.1987 72.1017 28.1414 71.8093 26.8548L71.0075 27.037ZM72.0417 30.3644L71.2873 30.6913C71.7026 31.6499 72.1956 32.4652 72.7779 33.116L73.3907 32.5677L74.0034 32.0195C73.5665 31.5312 73.1602 30.8776 72.7961 30.0375L72.0417 30.3644ZM73.3907 32.5677L72.7779 33.116C73.3706 33.7783 74.0763 34.2742 74.8897 34.5924L75.1893 33.8267L75.4889 33.0611C74.9233 32.8397 74.43 32.4962 74.0034 32.0195L73.3907 32.5677ZM75.1893 33.8267L74.9192 34.6033C75.7103 34.8785 76.5833 35.0087 77.5275 35.0087V34.1865V33.3642C76.733 33.3642 76.0472 33.2546 75.4594 33.0502L75.1893 33.8267ZM77.5275 34.1865V35.0087C79.0055 35.0087 80.2729 34.6464 81.2182 33.8145L80.675 33.1972L80.1319 32.58C79.5784 33.067 78.7473 33.3642 77.5275 33.3642V34.1865ZM80.675 33.1972L81.2061 33.8249C82.1929 32.9899 82.6664 31.8488 82.6664 30.4993H81.8441H81.0219C81.0219 31.4281 80.7159 32.0855 80.1439 32.5696L80.675 33.1972ZM81.8441 30.4993H82.6664C82.6664 28.5723 81.5047 27.0687 79.5516 25.9619L79.1462 26.6773L78.7409 27.3926C80.385 28.3243 81.0219 29.3687 81.0219 30.4993H81.8441ZM79.1462 26.6773L79.5565 25.9647L76.5888 24.256L76.1785 24.9686L75.7682 25.6811L78.736 27.3898L79.1462 26.6773ZM76.1785 24.9686L76.5844 24.2535C75.4945 23.6349 74.5782 23.0523 73.8308 22.5061L73.3457 23.17L72.8606 23.8338C73.672 24.4268 74.6442 25.0432 75.7727 25.6837L76.1785 24.9686ZM73.3457 23.17L73.8432 22.5154C73.13 21.9733 72.563 21.4446 72.131 20.9317L71.5021 21.4613L70.8732 21.9909C71.4005 22.6171 72.0625 23.2275 72.8482 23.8246L73.3457 23.17ZM71.5021 21.4613L72.1442 20.9477C71.7158 20.4122 71.4227 19.882 71.2479 19.3577L70.4679 19.6177L69.6879 19.8777C69.9328 20.6125 70.3292 21.3114 70.8601 21.9749L71.5021 21.4613ZM70.4679 19.6177L71.2479 19.3577C71.0683 18.8188 70.9754 18.2328 70.9754 17.5943H70.1532H69.3309C69.3309 18.3947 69.4478 19.1576 69.6879 19.8777L70.4679 19.6177ZM70.1532 17.5943H70.9754C70.9754 16.7642 71.1222 16.0201 71.405 15.3516L70.6478 15.0313L69.8905 14.7109C69.5139 15.6012 69.3309 16.5658 69.3309 17.5943H70.1532ZM70.6478 15.0313L71.3943 15.3758C71.7121 14.6873 72.1318 14.0991 72.653 13.6039L72.0867 13.0078L71.5204 12.4117C70.8425 13.0557 70.3029 13.8165 69.9012 14.6867L70.6478 15.0313ZM72.0867 13.0078L72.6383 13.6175C73.1789 13.1284 73.8297 12.7478 74.603 12.4811L74.3349 11.7038L74.0669 10.9265C73.1015 11.2594 72.2534 11.7481 71.535 12.3981L72.0867 13.0078ZM74.3349 11.7038L74.603 12.4811C75.3748 12.215 76.2421 12.0764 77.2127 12.0764V11.2542V10.432C76.085 10.432 75.0337 10.5931 74.0669 10.9265L74.3349 11.7038ZM77.2127 11.2542V12.0764C78.3135 12.0764 79.3689 12.2686 80.3841 12.6527L80.675 11.8837L80.966 11.1147C79.7628 10.6594 78.5101 10.432 77.2127 10.432V11.2542ZM80.675 11.8837L80.3511 12.6394C80.9964 12.916 81.6066 13.1106 82.1139 13.1106V12.2884V11.4662C81.9617 11.4662 81.6127 11.391 80.9989 11.1279L80.675 11.8837ZM82.1139 12.2884V13.1106C82.3606 13.1106 82.6966 13.0484 82.9651 12.7798L82.3837 12.1984L81.8023 11.617C81.9509 11.4684 82.1071 11.4662 82.1139 11.4662V12.2884ZM82.3837 12.1984L82.9651 12.7798C83.0015 12.7434 83.1282 12.6283 83.3748 12.4125L82.8334 11.7938L82.2919 11.175C82.0589 11.3788 81.8858 11.5336 81.8023 11.617L82.3837 12.1984ZM82.8334 11.7938L83.5688 12.1615L83.6138 12.0715L82.8783 11.7038L82.1429 11.3361L82.0979 11.426L82.8334 11.7938ZM82.8783 11.7038V12.526H83.5079V11.7038V10.8816H82.8783V11.7038ZM83.5079 11.7038L82.6859 11.7249L82.8658 18.7395L83.6877 18.7184L84.5097 18.6973L84.3298 11.6828L83.5079 11.7038ZM83.6877 18.7184V17.8962H82.8783V18.7184V19.5406H83.6877V18.7184ZM102.436 13.3226V14.1448H103.259V13.3226H102.436ZM97.2205 13.3226V12.5004H96.3982V13.3226H97.2205ZM97.85 31.6234L97.1398 32.0377L97.1436 32.0444L97.1476 32.051L97.85 31.6234ZM101.447 32.2979L101.834 33.0234L101.852 33.0136L101.87 33.003L101.447 32.2979ZM103.021 30.859L103.602 30.2776L102.979 29.6543L102.401 30.3195L103.021 30.859ZM103.65 31.4885L104.345 31.9295L104.698 31.3732L104.232 30.9072L103.65 31.4885ZM92.9038 13.3226H93.726V12.5004H92.9038V13.3226ZM90.2059 13.3226L90.0065 14.1202L90.1047 14.1448H90.2059V13.3226ZM90.8803 12.0186L90.469 11.3066L90.455 11.3148L90.4413 11.3234L90.8803 12.0186ZM95.8715 6.53282L96.549 6.99863L96.5592 6.98383L96.5687 6.9686L95.8715 6.53282ZM96.3661 5.85834L95.7473 5.31687L95.7418 5.32324L96.3661 5.85834ZM96.9057 5.09393V4.27171H96.4219L96.187 4.69462L96.9057 5.09393ZM97.1305 5.22883L96.3505 5.48884L96.3853 5.5933L96.4464 5.68491L97.1305 5.22883ZM97.2205 11.7038H96.3982V12.526H97.2205V11.7038ZM102.436 11.7038H103.259V10.8816H102.436V11.7038ZM102.436 13.3226V12.5004H97.2205V13.3226V14.1448H102.436V13.3226ZM97.2205 13.3226H96.3982V28.0712H97.2205H98.0427V13.3226H97.2205ZM97.2205 28.0712H96.3982C96.3982 29.7485 96.6044 31.12 97.1398 32.0377L97.85 31.6234L98.5602 31.2092C98.2562 30.688 98.0427 29.6914 98.0427 28.0712H97.2205ZM97.85 31.6234L97.1476 32.051C97.7414 33.0265 98.7086 33.4799 99.8734 33.4799V32.6576V31.8354C99.1797 31.8354 98.7979 31.5993 98.5523 31.1959L97.85 31.6234ZM99.8734 32.6576V33.4799C100.584 33.4799 101.246 33.3371 101.834 33.0234L101.447 32.2979L101.06 31.5724C100.749 31.7384 100.362 31.8354 99.8734 31.8354V32.6576ZM101.447 32.2979L101.87 33.003C102.429 32.6675 103.021 32.1124 103.641 31.3986L103.021 30.859L102.401 30.3195C101.822 30.9846 101.364 31.3887 101.024 31.5929L101.447 32.2979ZM103.021 30.859L102.44 31.4404L103.069 32.0699L103.65 31.4885L104.232 30.9072L103.602 30.2776L103.021 30.859ZM103.65 31.4885L102.956 31.0476C101.454 33.413 99.6227 34.4884 97.4453 34.4884V35.3106V36.1328C100.304 36.1328 102.61 34.6602 104.345 31.9295L103.65 31.4885ZM97.4453 35.3106V34.4884C96.1559 34.4884 95.2932 34.0424 94.7138 33.2107C94.0968 32.3249 93.726 30.8938 93.726 28.7906H92.9038H92.0816C92.0816 31.0341 92.4677 32.863 93.3645 34.1506C94.2989 35.4921 95.707 36.1328 97.4453 36.1328V35.3106ZM92.9038 28.7906H93.726V13.3226H92.9038H92.0816V28.7906H92.9038ZM92.9038 13.3226V12.5004H90.2059V13.3226V14.1448H92.9038V13.3226ZM90.2059 13.3226L90.4053 12.5249C90.471 12.5413 90.547 12.5731 90.6205 12.6283C90.6944 12.6837 90.7484 12.7496 90.7849 12.8135C90.82 12.8749 90.8352 12.9277 90.8418 12.9593C90.8452 12.9754 90.8468 12.9878 90.8475 12.9956C90.8482 13.0034 90.8482 13.0076 90.8482 13.0078H90.026H89.2038C89.2038 13.176 89.2297 13.4064 89.3571 13.6293C89.5011 13.8814 89.7347 14.0523 90.0065 14.1202L90.2059 13.3226ZM90.026 13.0078H90.8482C90.8482 13.1281 90.7912 13.155 90.8619 13.0731C90.9307 12.9934 91.0701 12.8712 91.3194 12.7138L90.8803 12.0186L90.4413 11.3234C90.1211 11.5257 89.8333 11.7482 89.6173 11.9983C89.4032 12.2461 89.2038 12.5878 89.2038 13.0078H90.026ZM90.8803 12.0186L91.2917 12.7305C92.8145 11.8507 94.5667 9.88208 96.549 6.99863L95.8715 6.53282L95.194 6.06701C93.2194 8.93911 91.6441 10.6277 90.469 11.3066L90.8803 12.0186ZM95.8715 6.53282L96.5687 6.9686C96.6973 6.76286 96.8379 6.57132 96.9904 6.39343L96.3661 5.85834L95.7418 5.32324C95.5346 5.56503 95.3454 5.82315 95.1743 6.09704L95.8715 6.53282ZM96.3661 5.85834L96.9849 6.39978C97.2317 6.11767 97.4455 5.81543 97.6245 5.49324L96.9057 5.09393L96.187 4.69462C96.0662 4.91202 95.9202 5.11938 95.7473 5.3169L96.3661 5.85834ZM96.9057 5.09393V5.91615C96.8699 5.91615 96.7581 5.9103 96.6288 5.8327C96.4832 5.74536 96.3919 5.61308 96.3505 5.48884L97.1305 5.22883L97.9106 4.96882C97.8392 4.75464 97.6954 4.55492 97.4749 4.4226C97.2706 4.30004 97.0614 4.27171 96.9057 4.27171V5.09393ZM97.1305 5.22883L96.4464 5.68491C96.4104 5.63094 96.3949 5.5883 96.3898 5.57314C96.3843 5.55663 96.3846 5.55256 96.3869 5.56634C96.3891 5.57932 96.3921 5.60238 96.3944 5.63762C96.3968 5.67249 96.3982 5.71578 96.3982 5.76841H97.2205H98.0427C98.0427 5.60753 98.0341 5.44629 98.009 5.296C97.9863 5.15967 97.9389 4.95909 97.8147 4.77274L97.1305 5.22883ZM97.2205 5.76841H96.3982V11.7038H97.2205H98.0427V5.76841H97.2205ZM97.2205 11.7038V12.526H102.436V11.7038V10.8816H97.2205V11.7038ZM102.436 11.7038H101.614V13.3226H102.436H103.259V11.7038H102.436ZM105.852 14.042L105.573 13.2684L105.03 13.4641V14.042H105.852ZM107.92 13.3226L108.18 14.1026L108.197 14.0971L108.213 14.0909L107.92 13.3226ZM109.719 12.6481L110.003 13.4196L110.014 13.4157L110.024 13.4115L109.719 12.6481ZM111.473 11.9736L111.757 12.7451L111.768 12.7412L111.778 12.737L111.473 11.9736ZM113.406 11.2092L113.632 10.4186L113.365 10.3424L113.107 10.4435L113.406 11.2092ZM113.721 11.2991H114.543V10.6789L113.947 10.5086L113.721 11.2991ZM113.721 16.0205H112.899V18.7003L114.402 16.4816L113.721 16.0205ZM115.43 13.7273L116.056 14.2598L116.062 14.2523L116.069 14.2446L115.43 13.7273ZM116.913 12.2434L117.407 12.9012L117.42 12.8916L117.432 12.8815L116.913 12.2434ZM118.307 11.434L118.062 10.6492L118.055 10.6516L118.047 10.654L118.307 11.434ZM121.905 11.9736L121.323 12.555L121.332 12.5638L121.341 12.5724L121.905 11.9736ZM122.129 15.6608L122.734 16.2185L122.744 16.2074L122.754 16.1959L122.129 15.6608ZM119.701 16.0655L119.334 16.8009L119.376 16.822L119.42 16.8382L119.701 16.0655ZM118.622 15.2111L119.204 14.6297L119.186 14.6126L119.168 14.5966L118.622 15.2111ZM116.104 14.9413L116.572 15.6174L116.582 15.6104L116.104 14.9413ZM114.575 33.1972L114.022 33.8056L114.038 33.82L114.055 33.8336L114.575 33.1972ZM118.083 34.0965H118.905V33.3022L118.111 33.2748L118.083 34.0965ZM118.083 34.816V35.6382H118.905V34.816H118.083ZM105.717 34.816H104.895V35.6382H105.717V34.816ZM105.717 34.0965L105.567 33.2881L104.895 33.4126V34.0965H105.717ZM107.651 33.6469L107.896 34.4317L107.91 34.4272L107.924 34.4222L107.651 33.6469ZM108.775 33.0174L108.228 32.4028L108.21 32.4189L108.193 32.436L108.775 33.0174ZM109.269 32.0731L108.465 31.9008L108.46 31.9243L108.457 31.9481L109.269 32.0731ZM109 15.301L108.283 15.7042L108.289 15.7142L108.295 15.7241L109 15.301ZM106.751 14.6266L106.66 13.8093L106.649 13.8107L106.751 14.6266ZM105.852 14.8064H105.03V15.8595L106.051 15.6041L105.852 14.8064ZM105.852 14.042L106.13 14.8156C106.875 14.5476 107.558 14.31 108.18 14.1026L107.92 13.3226L107.66 12.5425C107.024 12.7548 106.328 12.9968 105.573 13.2684L105.852 14.042ZM107.92 13.3226L108.213 14.0909C108.84 13.8521 109.437 13.6283 110.003 13.4196L109.719 12.6481L109.435 11.8766C108.862 12.0876 108.26 12.3134 107.628 12.5542L107.92 13.3226ZM109.719 12.6481L110.024 13.4115C110.617 13.1743 111.195 12.9522 111.757 12.7451L111.473 11.9736L111.188 11.2021C110.611 11.4147 110.02 11.6422 109.414 11.8847L109.719 12.6481ZM111.473 11.9736L111.778 12.737C112.375 12.4981 113.018 12.244 113.706 11.9749L113.406 11.2092L113.107 10.4435C112.415 10.714 111.769 10.9695 111.167 11.2102L111.473 11.9736ZM113.406 11.2092L113.18 11.9998L113.495 12.0897L113.721 11.2991L113.947 10.5086L113.632 10.4186L113.406 11.2092ZM113.721 11.2991H112.899V16.0205H113.721H114.543V11.2991H113.721ZM113.721 16.0205L114.402 16.4816C115.021 15.5676 115.572 14.8292 116.056 14.2598L115.43 13.7273L114.803 13.1948C114.268 13.8244 113.68 14.6148 113.04 15.5593L113.721 16.0205ZM115.43 13.7273L116.069 14.2446C116.549 13.6507 116.996 13.2089 117.407 12.9012L116.913 12.2434L116.42 11.5856C115.871 11.9973 115.329 12.5449 114.791 13.2099L115.43 13.7273ZM116.913 12.2434L117.432 12.8815C117.857 12.5363 118.235 12.3247 118.567 12.2141L118.307 11.434L118.047 10.654C117.48 10.8431 116.929 11.1711 116.395 11.6053L116.913 12.2434ZM118.307 11.434L118.553 12.2188C118.947 12.0955 119.374 12.0314 119.836 12.0314V11.2092V10.387C119.22 10.387 118.627 10.4728 118.062 10.6492L118.307 11.434ZM119.836 11.2092V12.0314C120.536 12.0314 120.999 12.2306 121.323 12.555L121.905 11.9736L122.486 11.3922C121.791 10.6975 120.876 10.387 119.836 10.387V11.2092ZM121.905 11.9736L121.341 12.5724C121.659 12.8719 121.847 13.2857 121.847 13.9071H122.669H123.491C123.491 12.9098 123.169 12.0346 122.468 11.3749L121.905 11.9736ZM122.669 13.9071H121.847C121.847 14.5304 121.698 14.9008 121.505 15.1257L122.129 15.6608L122.754 16.1959C123.28 15.5814 123.491 14.7827 123.491 13.9071H122.669ZM122.129 15.6608L121.525 15.1031C121.342 15.3013 121.094 15.4231 120.691 15.4231V16.2453V17.0675C121.486 17.0675 122.197 16.7996 122.734 16.2185L122.129 15.6608ZM120.691 16.2453V15.4231C120.463 15.4231 120.228 15.382 119.982 15.2927L119.701 16.0655L119.42 16.8382C119.834 16.9887 120.259 17.0675 120.691 17.0675V16.2453ZM119.701 16.0655L120.069 15.33C119.887 15.239 119.601 15.0272 119.204 14.6297L118.622 15.2111L118.041 15.7925C118.483 16.2343 118.916 16.5922 119.334 16.8009L119.701 16.0655ZM118.622 15.2111L119.168 14.5966C118.862 14.3242 118.548 14.0972 118.225 13.9361L117.858 14.6715L117.49 15.407C117.647 15.4856 117.843 15.6184 118.076 15.8257L118.622 15.2111ZM117.858 14.6715L118.225 13.9361C117.948 13.7974 117.615 13.6694 117.273 13.6694V14.4917V15.3139C117.243 15.3139 117.245 15.3086 117.29 15.3225C117.333 15.3358 117.399 15.3613 117.49 15.407L117.858 14.6715ZM117.273 14.4917V13.6694C116.682 13.6694 116.127 13.9144 115.626 14.2723L116.104 14.9413L116.582 15.6104C116.92 15.3687 117.145 15.3139 117.273 15.3139V14.4917ZM116.104 14.9413L115.636 14.2653C115.18 14.5812 114.754 14.9759 114.356 15.4404L114.98 15.9755L115.604 16.5106C115.926 16.1358 116.249 15.8411 116.572 15.6174L116.104 14.9413ZM114.98 15.9755L114.356 15.4404C113.954 15.9096 113.616 16.4152 113.345 16.9568L114.081 17.3245L114.816 17.6922C115.025 17.2745 115.287 16.8808 115.604 16.5106L114.98 15.9755ZM114.081 17.3245L113.345 16.9568C113.064 17.5198 112.899 18.0957 112.899 18.6734H113.721H114.543C114.543 18.4118 114.618 18.0884 114.816 17.6922L114.081 17.3245ZM113.721 18.6734H112.899V30.2295H113.721H114.543V18.6734H113.721ZM113.721 30.2295H112.899C112.899 30.9887 112.961 31.6605 113.103 32.2276L113.901 32.0281L114.698 31.8287C114.6 31.4365 114.543 30.9093 114.543 30.2295H113.721ZM113.901 32.0281L113.103 32.2276C113.258 32.8468 113.559 33.3849 114.022 33.8056L114.575 33.1972L115.128 32.5888C114.932 32.41 114.783 32.1688 114.698 31.8287L113.901 32.0281ZM114.575 33.1972L114.055 33.8336C114.503 34.2008 115.072 34.4528 115.715 34.6219L115.924 33.8267L116.133 33.0316C115.637 32.9009 115.307 32.7332 115.096 32.5609L114.575 33.1972ZM115.924 33.8267L115.715 34.6219C116.364 34.7928 117.15 34.8871 118.054 34.9183L118.083 34.0965L118.111 33.2748C117.277 33.246 116.623 33.1604 116.133 33.0316L115.924 33.8267ZM118.083 34.0965H117.26V34.816H118.083H118.905V34.0965H118.083ZM118.083 34.816V33.9938H105.717V34.816V35.6382H118.083V34.816ZM105.717 34.816H106.539V34.0965H105.717H104.895V34.816H105.717ZM105.717 34.0965L105.867 34.905C106.691 34.7524 107.372 34.5955 107.896 34.4317L107.651 33.6469L107.405 32.8621C106.97 32.998 106.362 33.1409 105.567 33.2881L105.717 34.0965ZM107.651 33.6469L107.924 34.4222C108.488 34.2231 108.993 33.9619 109.356 33.5988L108.775 33.0174L108.193 32.436C108.077 32.5525 107.832 32.7109 107.377 32.8715L107.651 33.6469ZM108.775 33.0174L109.321 33.6319C109.747 33.2529 109.996 32.7583 110.082 32.1981L109.269 32.0731L108.457 31.9481C108.423 32.1673 108.342 32.3022 108.228 32.4028L108.775 33.0174ZM109.269 32.0731L110.073 32.2454C110.18 31.7495 110.226 31.1626 110.226 30.4993H109.404H108.582C108.582 31.0951 108.539 31.5573 108.465 31.9008L109.269 32.0731ZM109.404 30.4993H110.226V17.6842H109.404H108.582V30.4993H109.404ZM109.404 17.6842H110.226C110.226 16.5332 110.1 15.5365 109.705 14.878L109 15.301L108.295 15.7241C108.439 15.9649 108.582 16.5569 108.582 17.6842H109.404ZM109 15.301L109.716 14.8979C109.277 14.1174 108.526 13.7594 107.651 13.7594V14.5816V15.4038C108.035 15.4038 108.182 15.5254 108.283 15.7042L109 15.301ZM107.651 14.5816V13.7594C107.297 13.7594 106.966 13.7754 106.66 13.8094L106.751 14.6266L106.842 15.4438C107.076 15.4178 107.345 15.4038 107.651 15.4038V14.5816ZM106.751 14.6266L106.649 13.8107C106.364 13.8463 106.029 13.9146 105.653 14.0088L105.852 14.8064L106.051 15.6041C106.394 15.5184 106.659 15.4668 106.853 15.4424L106.751 14.6266ZM105.852 14.8064H106.674V14.042H105.852H105.03V14.8064H105.852ZM143.666 31.8033L142.921 32.151L142.926 32.1611L142.931 32.171L143.666 31.8033ZM147.128 31.4885H147.951V29.8074L146.624 30.8395L147.128 31.4885ZM147.128 32.7925L147.738 33.3447L147.951 33.1097V32.7925H147.128ZM140.204 34.4563L139.562 34.9699L139.576 34.9876L139.591 35.0045L140.204 34.4563ZM139.304 31.4885L140.123 31.4173L139.984 29.8131L138.766 30.8668L139.304 31.4885ZM127.838 33.7818L127.248 34.3545L127.257 34.3632L127.838 33.7818ZM126.804 27.3967L126.039 27.0961L126.036 27.1036L126.033 27.1111L126.804 27.3967ZM128.198 25.3733L128.73 25.9998L128.737 25.9939L128.744 25.9878L128.198 25.3733ZM129.682 24.1592L130.168 24.8223L130.175 24.817L129.682 24.1592ZM131.525 23.08L131.881 23.8213L131.893 23.8156L131.905 23.8095L131.525 23.08ZM139.214 19.8425L139.526 20.6035L140.037 20.3945V19.8425H139.214ZM138.18 13.3675L137.574 13.9231L137.58 13.9299L137.587 13.9364L138.18 13.3675ZM132.65 13.0528L133.119 13.7278L133.125 13.7237L132.65 13.0528ZM131.705 15.8406L130.891 15.9569L130.895 15.9851L130.901 16.0129L131.705 15.8406ZM131.121 18.4037L130.579 17.7849L130.569 17.7936L130.56 17.8026L131.121 18.4037ZM127.973 18.4037L127.372 18.9647L127.391 18.9854L127.412 19.0047L127.973 18.4037ZM127.883 14.8064L127.167 14.4018L127.161 14.4139L127.154 14.4261L127.883 14.8064ZM129.457 12.9629L129.978 13.5992L129.987 13.5914L129.996 13.5833L129.457 12.9629ZM132.2 11.5689L131.977 10.7776L131.971 10.7791L132.2 11.5689ZM139.889 11.8837L139.513 12.6149L139.525 12.6212L139.538 12.6272L139.889 11.8837ZM142.362 14.042L143.067 13.619L143.063 13.6124L142.362 14.042ZM143.126 16.1554L142.318 16.3051L142.319 16.3107L143.126 16.1554ZM139.214 21.1016H140.037V19.9258L138.932 20.3293L139.214 21.1016ZM135.213 22.7653L135.564 23.5088L135.572 23.5047L135.213 22.7653ZM132.56 24.384L133.08 25.0204L133.083 25.0179L132.56 24.384ZM130.941 30.0047L130.165 30.2783L130.168 30.2859L130.171 30.2934L130.941 30.0047ZM131.66 31.2637L131.029 31.7901L131.041 31.805L131.054 31.8193L131.66 31.2637ZM135.887 32.1181L136.136 32.9016L136.147 32.8983L136.157 32.8946L135.887 32.1181ZM138.945 30.2295L138.209 29.8618L138.197 29.8871L138.186 29.9133L138.945 30.2295ZM143.351 29.4201H142.529C142.529 30.5627 142.627 31.5214 142.921 32.151L143.666 31.8033L144.411 31.4556C144.285 31.1859 144.173 30.5558 144.173 29.4201H143.351ZM143.666 31.8033L142.931 32.171C143.32 32.9506 144.072 33.255 144.88 33.255V32.4328V31.6106C144.489 31.6106 144.431 31.4954 144.401 31.4356L143.666 31.8033ZM144.88 32.4328V33.255C145.822 33.255 146.747 32.827 147.633 32.1376L147.128 31.4885L146.624 30.8395C145.891 31.4092 145.317 31.6106 144.88 31.6106V32.4328ZM147.128 31.4885H146.306V32.7925H147.128H147.951V31.4885H147.128ZM147.128 32.7925L146.519 32.2404C145.674 33.1733 144.982 33.7543 144.441 34.0492L144.835 34.771L145.229 35.4928C146.007 35.0683 146.844 34.3303 147.738 33.3447L147.128 32.7925ZM144.835 34.771L144.441 34.0492C143.92 34.3333 143.295 34.4884 142.542 34.4884V35.3106V36.1328C143.527 36.1328 144.431 35.9281 145.229 35.4928L144.835 34.771ZM142.542 35.3106V34.4884C141.636 34.4884 141.118 34.2454 140.816 33.908L140.204 34.4563L139.591 35.0045C140.308 35.8062 141.35 36.1328 142.542 36.1328V35.3106ZM140.204 34.4563L140.846 33.9426C140.52 33.5361 140.239 32.7472 140.123 31.4173L139.304 31.4885L138.485 31.5598C138.609 32.9877 138.928 34.1774 139.562 34.9699L140.204 34.4563ZM139.304 31.4885L138.766 30.8668C137.233 32.1941 135.925 33.1221 134.837 33.6797L135.213 34.4113L135.588 35.1429C136.839 34.5015 138.259 33.4809 139.842 32.1103L139.304 31.4885ZM135.213 34.4113L134.837 33.6797C133.763 34.2306 132.752 34.4884 131.795 34.4884V35.3106V36.1328C133.057 36.1328 134.324 35.7911 135.588 35.1429L135.213 34.4113ZM131.795 35.3106V34.4884C130.365 34.4884 129.265 34.0458 128.42 33.2004L127.838 33.7818L127.257 34.3632C128.45 35.5561 129.988 36.1328 131.795 36.1328V35.3106ZM127.838 33.7818L128.428 33.2091C127.609 32.3651 127.177 31.2621 127.177 29.8248H126.354H125.532C125.532 31.6251 126.089 33.1601 127.248 34.3544L127.838 33.7818ZM126.354 29.8248H127.177C127.177 29.1192 127.307 28.4064 127.575 27.6823L126.804 27.3967L126.033 27.1111C125.702 28.0058 125.532 28.9117 125.532 29.8248H126.354ZM126.804 27.3967L127.569 27.6974C127.857 26.9655 128.248 26.4095 128.73 25.9998L128.198 25.3733L127.665 24.7468C126.948 25.3562 126.411 26.1492 126.039 27.0961L126.804 27.3967ZM128.198 25.3733L128.744 25.9878C129.27 25.5206 129.744 25.1331 130.168 24.8223L129.682 24.1592L129.196 23.4962C128.72 23.8448 128.205 24.2667 127.652 24.7587L128.198 25.3733ZM129.682 24.1592L130.175 24.817C130.599 24.4992 131.163 24.166 131.881 23.8213L131.525 23.08L131.17 22.3388C130.389 22.7136 129.724 23.0998 129.188 23.5014L129.682 24.1592ZM131.525 23.08L131.905 23.8095C132.621 23.4371 133.568 23.0137 134.753 22.5395L134.448 21.776L134.143 21.0126C132.93 21.4977 131.929 21.9436 131.146 22.3506L131.525 23.08ZM134.448 21.776L134.753 22.5395C135.955 22.0587 137.546 21.4133 139.526 20.6035L139.214 19.8425L138.903 19.0815C136.926 19.8905 135.339 20.5341 134.143 21.0126L134.448 21.776ZM139.214 19.8425H140.037V16.5601H139.214H138.392V19.8425H139.214ZM139.214 16.5601H140.037C140.037 15.0273 139.661 13.7248 138.774 12.7986L138.18 13.3675L137.587 13.9364C138.078 14.4492 138.392 15.275 138.392 16.5601H139.214ZM138.18 13.3675L138.786 12.8119C137.929 11.8766 136.721 11.4662 135.302 11.4662V12.2884V13.1106C136.402 13.1106 137.113 13.4196 137.574 13.9231L138.18 13.3675ZM135.302 12.2884V11.4662C134.116 11.4662 133.057 11.7562 132.174 12.3818L132.65 13.0528L133.125 13.7237C133.68 13.3301 134.39 13.1106 135.302 13.1106V12.2884ZM132.65 13.0528L132.18 12.3778C131.324 12.9731 130.793 13.7874 130.793 14.8064H131.615H132.438C132.438 14.4465 132.596 14.0917 133.119 13.7278L132.65 13.0528ZM131.615 14.8064H130.793C130.793 15.1306 130.829 15.5178 130.891 15.9569L131.705 15.8406L132.519 15.7243C132.462 15.3241 132.438 15.0219 132.438 14.8064H131.615ZM131.705 15.8406L130.901 16.0129C130.985 16.405 131.018 16.6865 131.018 16.8748H131.84H132.662C132.662 16.5235 132.605 16.1156 132.509 15.6684L131.705 15.8406ZM131.84 16.8748H131.018C131.018 17.2208 130.893 17.5102 130.579 17.7849L131.121 18.4037L131.662 19.0224C132.307 18.4578 132.662 17.7279 132.662 16.8748H131.84ZM131.121 18.4037L130.56 17.8026C130.258 18.0842 129.932 18.2109 129.547 18.2109V19.0332V19.8554C130.361 19.8554 131.084 19.5624 131.682 19.0047L131.121 18.4037ZM129.547 19.0332V18.2109C129.162 18.2109 128.836 18.0842 128.534 17.8026L127.973 18.4037L127.412 19.0047C128.01 19.5624 128.733 19.8554 129.547 19.8554V19.0332ZM127.973 18.4037L128.574 17.8426C128.293 17.5409 128.166 17.2152 128.166 16.8299H127.344H126.521C126.521 17.6436 126.814 18.3671 127.372 18.9647L127.973 18.4037ZM127.344 16.8299H128.166C128.166 16.3246 128.303 15.7798 128.612 15.1868L127.883 14.8064L127.154 14.4261C126.744 15.212 126.521 16.0161 126.521 16.8299H127.344ZM127.883 14.8064L128.599 15.211C128.935 14.6168 129.391 14.0792 129.978 13.5992L129.457 12.9629L128.936 12.3265C128.204 12.9256 127.611 13.6172 127.167 14.4018L127.883 14.8064ZM129.457 12.9629L129.996 13.5833C130.573 13.0818 131.371 12.6648 132.428 12.3587L132.2 11.5689L131.971 10.7791C130.75 11.1326 129.72 11.6448 128.917 12.3424L129.457 12.9629ZM132.2 11.5689L132.423 12.3603C133.512 12.0531 134.695 11.8965 135.977 11.8965V11.0743V10.2521C134.561 10.2521 133.226 10.4252 131.977 10.7776L132.2 11.5689ZM135.977 11.0743V11.8965C137.445 11.8965 138.611 12.1512 139.513 12.6149L139.889 11.8837L140.265 11.1525C139.068 10.537 137.626 10.2521 135.977 10.2521V11.0743ZM139.889 11.8837L139.538 12.6272C140.487 13.0752 141.183 13.6917 141.661 14.4717L142.362 14.042L143.063 13.6124C142.402 12.5338 141.45 11.7114 140.24 11.1402L139.889 11.8837ZM142.362 14.042L141.657 14.465C141.958 14.9669 142.183 15.5755 142.318 16.3051L143.126 16.1554L143.935 16.0057C143.77 15.1165 143.485 14.3162 143.067 13.619L142.362 14.042ZM143.126 16.1554L142.319 16.3107C142.455 17.0157 142.529 18.0204 142.529 19.3479H143.351H144.173C144.173 17.9776 144.098 16.8539 143.934 16.0001L143.126 16.1554ZM143.351 19.3479H142.529V29.4201H143.351H144.173V19.3479H143.351ZM139.214 21.1016L138.932 20.3293C137.355 20.9054 135.994 21.4707 134.853 22.0259L135.213 22.7653L135.572 23.5047C136.649 22.9807 137.956 22.4368 139.497 21.8739L139.214 21.1016ZM135.213 22.7653L134.861 22.0218C133.74 22.5515 132.792 23.1253 132.036 23.7501L132.56 24.384L133.083 25.0179C133.706 24.5037 134.527 23.9982 135.564 23.5088L135.213 22.7653ZM132.56 24.384L132.039 23.7477C131.306 24.3473 130.741 25.0236 130.378 25.7842L131.121 26.1377L131.863 26.4912C132.1 25.9927 132.494 25.4999 133.08 25.0204L132.56 24.384ZM131.121 26.1377L130.378 25.7842C130.022 26.5322 129.849 27.3437 129.849 28.2061H130.671H131.493C131.493 27.5696 131.62 27.0021 131.863 26.4912L131.121 26.1377ZM130.671 28.2061H129.849V28.4309H130.671H131.493V28.2061H130.671ZM130.671 28.4309H129.849C129.849 29.0639 129.955 29.681 130.165 30.2783L130.941 30.0047L131.716 29.731C131.567 29.3092 131.493 28.8771 131.493 28.4309H130.671ZM130.941 30.0047L130.171 30.2934C130.38 30.8513 130.664 31.3531 131.029 31.7901L131.66 31.2637L132.292 30.7373C132.057 30.4549 131.861 30.1173 131.711 29.716L130.941 30.0047ZM131.66 31.2637L131.054 31.8193C131.449 32.25 131.904 32.597 132.417 32.8535L132.784 32.1181L133.152 31.3826C132.826 31.2195 132.531 30.9969 132.266 30.7081L131.66 31.2637ZM132.784 32.1181L132.417 32.8535C132.945 33.1178 133.505 33.255 134.088 33.255V32.4328V31.6106C133.772 31.6106 133.463 31.538 133.152 31.3826L132.784 32.1181ZM134.088 32.4328V33.255C134.733 33.255 135.418 33.1302 136.136 32.9016L135.887 32.1181L135.638 31.3345C135.037 31.5256 134.523 31.6106 134.088 31.6106V32.4328ZM135.887 32.1181L136.157 32.8946C136.887 32.6407 137.574 32.3376 138.217 31.9842L137.821 31.2637L137.424 30.5433C136.868 30.8494 136.266 31.1158 135.617 31.3415L135.887 32.1181ZM137.821 31.2637L138.217 31.9842C138.869 31.6254 139.445 31.1658 139.704 30.5458L138.945 30.2295L138.186 29.9133C138.144 30.0127 137.971 30.2425 137.424 30.5433L137.821 31.2637ZM138.945 30.2295L139.68 30.5972C139.949 30.0597 140.037 29.3297 140.037 28.5208H139.214H138.392C138.392 29.2707 138.3 29.6799 138.209 29.8618L138.945 30.2295ZM139.214 28.5208H140.037V21.1016H139.214H138.392V28.5208H139.214Z" fill="#1B7660" mask="url(#path-1-outside-1_500_933)"/>
</g>
<defs>
<filter id="filter0_d_500_933" x="0" y="0" width="151.951" height="44.1328" filterUnits="userSpaceOnUse" color-interpolation-filters="sRGB">
<feFlood flood-opacity="0" result="BackgroundImageFix"/>
<feColorMatrix in="SourceAlpha" type="matrix" values="0 0 0 0 0 0 0 0 0 0 0 0 0 0 0 0 0 0 127 0" result="hardAlpha"/>
<feOffset dy="4"/>
<feGaussianBlur stdDeviation="2"/>
<feComposite in2="hardAlpha" operator="out"/>
<feColorMatrix type="matrix" values="0 0 0 0 0 0 0 0 0 0 0 0 0 0 0 0 0 0 0.25 0"/>
<feBlend mode="normal" in2="BackgroundImageFix" result="effect1_dropShadow_500_933"/>
<feBlend mode="normal" in="SourceGraphic" in2="effect1_dropShadow_500_933" result="shape"/>
</filter>
</defs>
</svg>
